<svg width="71" height="22" viewBox="0 0 71 22" fill="none" xmlns="http://www.w3.org/2000/svg">
<path fill-rule="evenodd" clip-rule="evenodd" d="M3.0073 2.01967C8.38185 -0.654068 15.1185 -0.734148 20.7593 2.14525C23.7162 8.59945 23.3029 14.7887 20.8009 19.9322C15.4772 22.6112 8.92842 22.809 3.0073 19.8066C0.147627 13.7484 0.235871 6.90836 3.0073 2.01967ZM10.8982 16.7467L11.2326 16.7429C12.0097 5.36287 5.24186 6.7617 4.64852 9.13347C3.96029 11.9316 5.30256 12.2945 6.95303 12.7407C8.03911 13.0343 9.25863 13.364 10.1208 14.4474C10.5946 15.0429 10.8154 15.8209 10.8982 16.7467ZM7.09699 13.2887C6.02008 13.0038 4.92834 12.7151 4.65654 12.1607C3.69872 13.5939 4.47733 15.2505 5.54973 15.6327C6.19585 15.8705 6.90269 15.7539 7.573 15.6433C8.67476 15.4616 9.6778 15.2962 10.1502 16.7472H10.5362C10.5362 16.7472 10.7711 15.202 9.13458 14.0273C8.69401 13.7111 7.89962 13.501 7.09699 13.2887ZM10.2312 18.4983L10.0714 19.7685C9.99265 20.0617 9.58957 20.0858 9.57065 19.6831L9.71974 18.4665L9.37887 18.4129L9.22978 19.8645C9.34542 20.4515 10.2619 20.5338 10.3909 19.9179L10.5188 18.5197L10.2312 18.4983ZM8.21309 20.0361L8.54094 20.1154C8.54183 20.013 8.56595 19.8989 8.59006 19.7849C8.63918 19.5526 8.6883 19.3203 8.54109 19.1864C8.72862 19.1491 8.7866 18.9968 8.82368 18.7787C8.80506 18.4976 8.72287 18.2356 7.78352 18.1331L7.39921 19.8662L7.76097 19.9341L7.93776 19.2122C8.44472 19.2122 8.34227 19.5642 8.26073 19.8443C8.24012 19.9151 8.22084 19.9813 8.21309 20.0361ZM6.16123 19.0484C6.18741 18.714 6.36829 18.2943 6.45865 18.1742C6.55552 18.0451 6.87838 18.1693 6.85537 18.2934C6.83358 18.4105 6.81829 18.4848 6.81829 18.4848L7.06803 18.532C7.06803 18.532 7.14901 18.3005 7.13297 18.0949C7.11677 17.8885 6.45335 17.5546 6.18105 17.8962C5.90088 18.2475 5.72712 18.9993 5.78449 19.2472C5.84185 19.5559 6.3306 19.6473 6.5976 19.5254L6.57777 19.6645L6.79589 19.7242L7.05366 18.83L6.51814 18.6512L6.43882 18.8895L6.67676 18.9689C6.67676 18.9689 6.62606 19.2536 6.55779 19.2868C6.47318 19.3282 6.13338 19.4029 6.16123 19.0484ZM11.2645 20.3982L11.3284 19.6296C11.3597 19.6306 11.3958 19.6339 11.4349 19.6375C11.6957 19.6613 12.093 19.6977 12.1275 19.1388C12.1402 18.6683 11.759 18.5761 11.0941 18.5623L10.9983 20.3876L11.2645 20.3982ZM11.5458 16.747H11.9912C11.9913 16.4081 11.9789 16.0257 11.9655 15.6137V15.6137V15.6137C11.9118 13.9646 11.8427 11.842 12.5024 10.1413C12.9835 9.19625 13.4195 8.76659 13.8318 8.36021C14.2847 7.91392 14.709 7.49571 15.1333 6.45381C15.6048 4.46288 14.7555 2.32452 11.9912 2.04015C8.80264 2.21199 7.8536 4.44347 8.41122 6.50584C8.58637 7.1538 9.06746 7.65897 9.58412 8.20149C10.1064 8.74991 10.665 9.33651 10.9807 10.1474C11.6262 11.8044 11.5851 13.9246 11.5539 15.5281V15.5282V15.5282C11.5451 15.9836 11.537 16.3974 11.5458 16.747ZM16.6226 19.7791L16.9315 19.6724L16.8994 19.2242L17.2403 19.0962L17.5386 19.523L17.7837 19.3628L16.8888 17.8472L16.5266 17.9432L16.6226 19.7791ZM12.9711 16.747H13.3274C13.9166 15.3714 14.7811 15.5257 15.7846 15.7048C16.6186 15.8536 17.5486 16.0196 18.4963 15.3385C19.3365 14.7348 19.6258 13.5573 18.8211 12.1607C18.6526 12.6709 17.8775 12.8806 16.9433 13.1334C15.2977 13.5787 13.1584 14.1576 12.9711 16.747ZM15.3764 19.6405L15.2166 18.7972C15.1857 18.6174 15.2443 18.5111 15.387 18.4454C15.5437 18.4311 15.6147 18.5079 15.664 18.7014L15.9729 18.6479C15.9645 18.6185 15.9579 18.5874 15.9512 18.5559C15.9066 18.3461 15.8575 18.1155 15.2379 18.2103C14.843 18.3011 14.9121 18.7615 14.983 19.2334L14.983 19.2335L14.983 19.2336C14.99 19.2803 14.997 19.3271 15.0036 19.3737C15.1294 19.9781 15.2205 20.0688 15.6854 20.0355C15.9021 19.9936 16.192 19.9313 16.1114 19.3203L15.8025 19.363L15.8076 19.3874C15.8392 19.5387 15.8639 19.6575 15.696 19.7793C15.6792 19.7814 15.6634 19.7838 15.6485 19.786C15.5281 19.804 15.4649 19.8134 15.3764 19.6405ZM14.3217 20.1741C14.4916 20.1148 14.5816 19.9382 14.5668 19.6724C14.5199 19.5042 14.4537 19.3513 14.2577 19.2882L14.2646 19.2794C14.3651 19.1514 14.4497 19.0436 14.3643 18.7546C14.2114 18.3366 13.6472 18.479 13.4002 18.5413L13.4002 18.5413L13.3999 18.5414C13.361 18.5512 13.33 18.559 13.3097 18.5623L13.5973 20.3235L14.3217 20.1741ZM18.8322 9.13362C18.0131 7.08581 14.3204 6.28122 12.7066 10.8343C12.2451 12.1359 12.2618 13.9108 12.285 16.3801L12.2885 16.7634H12.6851C12.6919 15.4377 13.1522 14.5632 14.0269 13.8009C14.7815 13.2514 15.6743 13.001 16.4959 12.7704C18.194 12.294 19.5883 11.9028 18.8322 9.13362ZM17.1766 18.8825L16.8463 18.9785L16.8144 18.381L17.1766 18.8825ZM11.3604 19.3415L11.4242 18.8932C11.6135 18.8878 11.8017 18.9015 11.8078 19.1493C11.7478 19.3858 11.6205 19.368 11.4916 19.3499C11.4472 19.3436 11.4025 19.3374 11.3604 19.3415ZM13.672 18.7545C13.9264 18.6705 14.0281 18.7604 14.0555 18.8825C14.0737 19.043 13.9662 19.1669 13.7572 19.2133L13.672 18.7545ZM8.00968 18.9147L8.1114 18.507C8.48662 18.5106 8.48042 18.6614 8.47315 18.8128C8.39195 18.9935 8.26431 18.9647 8.13672 18.9358C8.09378 18.9261 8.05084 18.9164 8.00968 18.9147ZM13.9064 20.0247L13.8318 19.555C13.9726 19.5268 14.1495 19.4935 14.194 19.7046C14.2402 19.924 14.081 20.0291 13.9064 20.0247ZM38.8455 10.4723C43.2678 8.46237 43.9218 1.90352 37.6314 1.90352H30.3466L27.6545 7.19292H28.9214L25.7014 19.8345H34.1473C40.3091 19.8873 43.0803 12.617 38.8455 10.4723ZM34.1473 15.2328H32.0358L32.8276 12.3766H34.8335C37.2089 12.8525 35.731 15.3385 34.1473 15.2328ZM35.4142 9.14988H33.6195L34.1473 6.6639H36.1532C38.0914 7.13998 36.4173 9.25574 35.4142 9.14988ZM58.9037 3.76645L56.1381 8.65833C52.5621 5.73449 47.4757 7.34656 47.0015 11.6633C47.2302 16.8981 52.6365 16.0615 55.2769 14.3188L52.581 19.9031C51.6195 20.4592 41.8175 22.036 41.4219 13.2707C42.0838 2.82187 52.6547 1.34342 54.6734 2.41419L55.1616 1.81055L58.9037 3.76645ZM61.4366 1.90307H69.9384L70.801 19.8341H65.0921L64.9972 16.7467H61.1903L59.917 19.8341H53.7153L60.1224 7.03412H58.7342L61.4366 1.90307ZM64.997 7.61031L62.9151 12.59H65.0919L64.997 7.61031Z" fill="#D2A567"/>
</svg>
