<svg width="17" height="22" viewBox="0 0 17 22" fill="none" xmlns="http://www.w3.org/2000/svg">
<path d="M15.4571 6.76994C15.5838 7.44658 15.4858 8.14643 15.1783 8.76138C14.8708 9.37634 14.3709 9.87218 13.7558 10.1723L13.7376 10.1806C14.6338 10.3521 15.4433 10.8312 16.0284 11.5362L16.0339 11.5426C16.4387 12.1512 16.6807 12.9001 16.6807 13.7058C16.6807 13.9404 16.6598 14.1714 16.6207 14.3951L16.6243 14.3712C16.5774 14.9542 16.4286 15.5242 16.1849 16.055L16.1977 16.0238C15.9965 16.4668 15.7094 16.8647 15.3534 17.1943L15.3507 17.1971C14.9824 17.5212 14.5617 17.7794 14.107 17.9606L14.0779 17.9707C13.5794 18.1764 13.0602 18.327 12.5294 18.4198L12.483 18.4271C11.9317 18.5243 11.2749 18.5949 10.6071 18.6242L10.5743 18.6251V22H8.55371V18.6819C7.85379 18.6819 7.32006 18.6777 6.95251 18.6691V22H4.93189V18.6269C4.7742 18.6269 4.53796 18.6248 4.22318 18.6205C3.9084 18.6163 3.66761 18.6141 3.50082 18.6141H0.87793L1.2846 16.1943H2.74024C2.83451 16.2026 2.92945 16.1915 3.01937 16.1618C3.10929 16.1322 3.19231 16.0845 3.26345 16.0216C3.33459 15.9588 3.39238 15.8821 3.43332 15.7961C3.47427 15.7102 3.49754 15.6168 3.50172 15.5215V10.2053H3.71097C3.6489 10.1963 3.58627 10.1917 3.52356 10.1916H3.50082H3.50172V6.3978C3.46333 6.12249 3.31834 5.87367 3.09844 5.7057C2.87854 5.53774 2.6016 5.46428 2.32811 5.50138L2.33357 5.50046H0.87793V3.33181L3.66003 3.34464C4.21984 3.34464 4.6441 3.34036 4.9328 3.33181V0.00091659H6.95342V3.26581C7.67032 3.24809 8.20406 3.23923 8.55462 3.23923V0H10.5752V3.33089C11.2585 3.3868 11.8853 3.49221 12.493 3.6462L12.4121 3.62878C12.9415 3.76141 13.4503 3.96682 13.9241 4.23923L13.895 4.22365C14.3399 4.47571 14.7047 4.82402 14.9704 5.2429L14.9776 5.25481C15.2545 5.71002 15.419 6.22552 15.4571 6.75802L15.458 6.76902L15.4571 6.76994ZM12.6359 13.9753V13.9404C12.6359 13.6434 12.5631 13.3648 12.4348 13.1192L12.4394 13.1283C12.3197 12.8967 12.1559 12.6911 11.9572 12.5234L11.9545 12.5206C11.7331 12.3467 11.4839 12.2122 11.2175 12.1228L11.2003 12.1173C10.9339 12.0187 10.6609 11.9393 10.3833 11.8799L10.3414 11.8726C10.0277 11.8126 9.71043 11.7734 9.39162 11.7553L9.37069 11.7544C8.98616 11.7281 8.68442 11.7149 8.46547 11.7149C8.24651 11.7149 7.96448 11.7192 7.61937 11.7278C7.27426 11.7363 7.06653 11.7406 6.99618 11.7406V16.2062C7.06593 16.2062 7.22787 16.2084 7.482 16.2127C7.73613 16.2169 7.94598 16.2191 8.11156 16.2191C8.27714 16.2191 8.50914 16.2123 8.80754 16.1989C9.10595 16.1855 9.3619 16.1677 9.57539 16.1457C9.78889 16.1237 10.0382 16.0865 10.3232 16.0339C10.6053 15.9844 10.85 15.9203 11.0865 15.8387L11.0511 15.8497C11.2949 15.7617 11.5005 15.6682 11.697 15.56L11.6733 15.572C11.8744 15.4675 12.0463 15.3346 12.1901 15.1769L12.191 15.176C12.322 15.0257 12.4303 14.8506 12.5085 14.6599L12.5131 14.6471C12.5955 14.4409 12.6375 14.2205 12.6368 13.9982V13.9734V13.9743L12.6359 13.9753ZM11.7043 7.68194V7.64803C11.7043 7.37947 11.6433 7.12557 11.536 6.89826L11.5405 6.90834C11.4427 6.70013 11.3073 6.51208 11.1411 6.3538L11.1402 6.35289C10.9588 6.19505 10.75 6.07231 10.5243 5.99083L10.5106 5.98625C10.2863 5.89518 10.0547 5.82343 9.8183 5.77177L9.78828 5.76627C9.52942 5.71608 9.26787 5.68119 9.00496 5.66178L8.9804 5.65995C8.66137 5.63367 8.40754 5.62267 8.21892 5.62695C8.03029 5.63123 7.79405 5.6355 7.5102 5.63978C7.22635 5.64406 7.05349 5.6462 6.99163 5.6462V9.70486L7.4447 9.71128C7.70307 9.71555 7.90626 9.71555 8.05425 9.71128C8.20224 9.707 8.42058 9.69814 8.70929 9.68469C8.96246 9.67606 9.21475 9.65003 9.4644 9.60678L9.43165 9.61137C9.62573 9.57592 9.85075 9.52704 10.1067 9.46471C10.3469 9.41155 10.5598 9.32722 10.7536 9.21448L10.7426 9.21998C10.9156 9.11372 11.0793 8.99291 11.2321 8.85885L11.2275 8.86251C11.3836 8.72722 11.5042 8.55536 11.5787 8.36205L11.5815 8.3538C11.6579 8.15949 11.7015 7.93401 11.7015 7.69844V7.67919V7.68011L11.7043 7.68194Z" fill="#D2A567"/>
</svg>
