<svg width="97" height="32" viewBox="0 0 97 32" fill="none" xmlns="http://www.w3.org/2000/svg">
<path fill-rule="evenodd" clip-rule="evenodd" d="M14.5589 0.326863C11.4602 1.13573 9.2176 3.60352 8.68085 6.79476L8.48292 7.97222L7.24234 8.19405C3.58354 8.84778 1.16906 11.4165 0.571507 15.2911L0.454529 16.0489H8.46473L8.55817 19.0358C8.66213 22.3628 8.88093 23.4368 9.85688 25.4108C11.4092 28.5505 14.1311 30.7539 17.6048 31.6824C19.4228 32.1685 22.305 32.0879 24.1135 31.5005C26.0406 30.8744 27.5997 29.9243 29.0049 28.519C30.405 27.1188 31.3553 25.5633 31.9928 23.6276C32.3951 22.4063 32.4629 21.8932 32.4629 20.0612C32.4629 18.2291 32.3951 17.7161 31.9928 16.4947C31.3553 14.5591 30.405 13.0036 29.0049 11.6034C27.6009 10.1995 26.0429 9.24918 24.1135 8.62006C22.8681 8.21402 22.2962 8.14394 19.6109 8.06726L16.5348 7.97953V0L16.1336 0.0103427C15.913 0.0158706 15.2042 0.15835 14.5589 0.326863ZM40.6082 24.43H41.7673C42.8016 24.43 42.9264 24.3922 42.9264 24.0787C42.9264 23.7456 42.9599 23.7503 43.5755 24.1679C44.7656 24.9757 46.4542 24.6845 47.5022 23.4912C48.2538 22.6351 48.5259 21.747 48.5259 20.1503C48.5259 18.5536 48.2538 17.6656 47.5022 16.8095C46.5062 15.6754 44.8378 15.3437 43.68 16.0496C43.3588 16.2454 43.058 16.4056 43.0113 16.4056C42.9646 16.4056 42.9264 15.4426 42.9264 14.2657V12.1259H40.6082V24.43ZM50.4289 12.5957C50.2257 12.8541 50.0593 13.2188 50.0593 13.4062C50.0593 13.8975 50.8564 14.6224 51.3967 14.6224C51.937 14.6224 52.7341 13.8975 52.7341 13.4062C52.7341 12.7796 52.0513 12.1259 51.3967 12.1259C50.9628 12.1259 50.697 12.255 50.4289 12.5957ZM55.4089 15.8706H54.1607V17.6538H55.4089V20.2452C55.4089 23.2565 55.5774 23.8764 56.5015 24.2647C56.8323 24.4038 57.6246 24.518 58.2621 24.5183L59.4212 24.5192V22.5577L58.797 22.5031C57.8393 22.4193 57.7271 22.132 57.7271 19.7596V17.6538H59.6886V15.8706H57.7271V13.5524H55.4089V15.8706ZM64.86 15.8182C64.7128 15.872 64.412 16.0803 64.1913 16.2811L63.79 16.6461V16.2583C63.79 15.8972 63.7044 15.8706 62.5418 15.8706H61.2935V27.9965H63.79V23.9003L64.3696 24.2537C65.6333 25.0242 67.6692 24.5115 68.553 23.2C69.6507 21.5712 69.5848 18.5674 68.4152 16.9247C67.7288 15.961 65.9684 15.413 64.86 15.8182ZM72.901 15.9227C72.0485 16.1948 70.9229 17.3065 70.9229 17.8762C70.9229 18.3013 70.996 18.3405 72.0064 18.4579C72.9583 18.5683 73.1305 18.5399 73.4251 18.2237C73.8836 17.7316 74.7199 17.5741 75.3299 17.8651C75.7222 18.0524 75.8383 18.2426 75.882 18.7696L75.9375 19.437H74.378C71.7744 19.437 70.67 20.2579 70.6934 22.1759C70.7121 23.7127 71.7881 24.6077 73.6173 24.608C74.3875 24.6084 74.7673 24.5069 75.2668 24.1679C75.8824 23.7503 75.9159 23.7456 75.9159 24.0787C75.9159 24.3947 76.0411 24.43 77.1641 24.43H78.4124V21.3472C78.4124 18.5048 78.3812 18.2023 78.0112 17.4687C77.2649 15.989 74.9178 15.2788 72.901 15.9227ZM81.8881 16.0249C80.9891 16.4332 80.0931 17.4411 79.8497 18.3177C79.6023 19.2084 79.6098 21.0986 79.8641 21.9475C80.3474 23.56 81.8194 24.5975 83.634 24.6044C84.8566 24.6091 85.7781 24.2614 86.5672 23.4976C87.094 22.988 87.6519 21.841 87.4643 21.6534C87.4215 21.6106 86.9146 21.4883 86.3375 21.3816C85.4916 21.2253 85.2733 21.2336 85.2095 21.4251C85.0602 21.8727 84.1461 22.6468 83.7669 22.6468C83.5584 22.6468 83.1547 22.5263 82.8699 22.379C82.0639 21.9623 81.7472 20.3677 82.1687 18.8497C82.543 17.5014 84.1693 17.3081 84.9211 18.5224C85.2721 19.0891 85.2947 19.0968 86.3333 18.9998C86.9137 18.9456 87.4281 18.8618 87.4763 18.8136C87.5244 18.7655 87.4699 18.4121 87.3549 18.0281C87.125 17.2612 86.1863 16.3278 85.2519 15.9375C84.4229 15.5912 82.747 15.6347 81.8881 16.0249ZM91.2515 15.9204C90.2583 16.4054 89.8112 16.8439 89.3512 17.7844C88.4496 19.627 88.8087 22.3423 90.1165 23.5736C91.3505 24.7352 93.516 24.9682 95.1771 24.118C96.5712 23.4043 96.6538 23.1657 95.8057 22.2973L95.1072 21.5821L94.7672 21.9471C94.1081 22.6545 93.0321 22.8391 92.169 22.3927C91.723 22.1622 91.2515 21.4635 91.2515 21.0336C91.2515 20.9332 92.3923 20.8636 94.0414 20.8636H96.831L96.7224 19.7004C96.5805 18.1809 95.9849 17.0001 95.017 16.3193C94.3699 15.8642 94.0753 15.7811 92.9789 15.7451C92.2437 15.7208 91.5073 15.7955 91.2515 15.9204ZM50.2376 24.43H52.5558V15.8706H50.2376V24.43ZM22.4409 16.5472C25.1241 17.9488 25.2796 21.8474 22.7156 23.4325C20.6013 24.7398 17.8995 23.9236 16.8685 21.6661C16.6042 21.0872 16.542 20.4904 16.5388 18.5009L16.5348 16.0489H19.011C21.3752 16.0489 21.5302 16.0714 22.4409 16.5472ZM45.2237 17.9447C46.1023 18.5599 46.3882 20.2265 45.8473 21.5785C45.3956 22.7071 44.5672 22.9682 43.7294 22.2456C42.7718 21.4198 42.7276 19.0734 43.6522 18.1488C44.218 17.583 44.631 17.5294 45.2237 17.9447ZM65.9397 17.8375C66.5069 18.141 66.8215 18.9796 66.8208 20.186C66.8197 22.0084 65.9101 23.0201 64.7483 22.4908C63.496 21.92 63.4728 18.3405 64.7184 17.8407C65.2681 17.6199 65.5322 17.6192 65.9397 17.8375ZM93.3402 17.8411C93.8543 18.0203 94.283 18.628 94.283 19.1779C94.283 19.3843 93.974 19.437 92.7673 19.437C91.4336 19.437 91.2515 19.3989 91.2515 19.1202C91.2515 18.684 91.7458 18.0167 92.2068 17.8307C92.7154 17.6255 92.722 17.6255 93.3402 17.8411ZM75.9159 21.4747C75.9159 22.2681 75.2492 22.8252 74.2998 22.8252C73.1942 22.8252 72.6822 21.9362 73.3579 21.1898C73.5847 20.939 73.9148 20.8636 74.7844 20.8636H75.9159V21.4747Z" fill="#D2A567"/>
<path d="M8.46473 16.0489L8.55817 19.0358L16.5 16.0489H8.46473Z" fill="#C68D3E"/>
</svg>
