<svg width="76" height="22" viewBox="0 0 76 22" fill="none" xmlns="http://www.w3.org/2000/svg">
<path fill-rule="evenodd" clip-rule="evenodd" d="M9.5158 0.338463C9.26729 1.00934 9.24911 2.28462 9.48549 3.30001C9.8128 4.73244 10.6856 6.51541 11.813 8.03849L12.1403 8.48575L12.2736 7.76651C12.6434 5.75991 13.3404 4.58134 14.7648 3.52968C16.5528 2.20605 18.7833 1.95221 20.9895 2.81045C21.0865 2.85276 21.0926 2.7621 21.0926 1.42638V0H15.3709H9.64308L9.5158 0.338463ZM0 1.68029V3.36052L4.18219 8.58856C6.48542 11.4595 8.40074 13.8347 8.44923 13.865C8.50378 13.9012 8.84321 13.6655 9.59479 13.0732L10.6616 12.227L10.1464 11.5682C9.52812 10.7765 8.3765 9.07208 7.9401 8.29241C7.23094 7.02317 6.74605 5.77207 6.47936 4.53305C6.3642 4.01931 6.33996 3.69898 6.33996 2.84074C6.33389 1.60172 6.43693 1.03359 6.81879 0.102816C6.86121 0.00611206 6.67332 6.80827e-05 3.43061 6.80827e-05H0V1.68029ZM27.9176 1.25137C27.7297 1.00961 27.366 0.719503 26.8144 0.393128L26.4629 0.181589H31.2876C35.3425 0.181589 36.191 0.193677 36.6456 0.272249C38.1306 0.53214 39.3974 1.14258 40.2217 2.00083C40.8763 2.68984 41.1915 3.40907 41.2581 4.37611C41.3915 6.38271 40.2884 8.17173 38.464 8.9091L38.1306 9.04811L38.8034 9.2113C41.2036 9.80361 42.7371 11.2602 43.1856 13.3877C43.3432 14.1069 43.325 15.358 43.1613 15.9866C42.6158 18.0295 40.943 19.5465 38.2458 20.435C38.1465 20.4675 38.055 20.4979 37.9694 20.5263C37.6724 20.6249 37.4471 20.6998 37.2174 20.7567C36.496 20.9357 35.731 20.9385 32.5637 20.9504L32.5601 20.9504L32.5327 20.9505C32.2012 20.9517 31.8437 20.9531 31.4573 20.9547C28.6691 20.9668 26.4871 20.9547 26.5174 20.9245C26.5538 20.8943 26.7599 20.7311 26.9841 20.5619C27.5297 20.1328 27.9842 19.6251 28.063 19.3531C28.1115 19.196 28.1236 16.4399 28.1115 10.3053L28.0933 1.48104L27.9176 1.25137ZM38.1003 5.19809C38.0154 3.97116 37.3729 2.986 36.3244 2.46621L35.9122 2.26676L33.7181 2.24863L31.5179 2.2305V5.47007V8.7036H33.5787C35.5182 8.7036 35.6516 8.69756 35.9546 8.57668C36.688 8.28657 37.4336 7.59755 37.7912 6.86623C38.0579 6.32227 38.1488 5.85084 38.1003 5.19809ZM39.064 11.8767C38.4943 11.3086 37.9124 10.958 37.0153 10.6437L36.3971 10.4261L33.9605 10.408L31.5179 10.3899V14.5058V18.6218L34.0211 18.6036L36.5183 18.5855L36.979 18.3981C37.773 18.0778 38.4155 17.6608 38.9731 17.1047C39.8035 16.2767 40.1429 15.491 40.1429 14.3849C40.1429 13.3575 39.8398 12.6503 39.064 11.8767ZM45.859 0.411301C46.3499 0.731632 46.8166 1.1668 46.9379 1.4146C47.0288 1.60196 47.0349 2.42999 47.0349 10.4383C47.0349 19.0268 47.0288 19.2564 46.9136 19.5103C46.7985 19.7641 46.1984 20.4108 45.7317 20.7795L45.4893 20.9729H48.2774H51.0655L50.7928 20.7493C50.326 20.3685 49.7321 19.746 49.623 19.5103C49.526 19.3048 49.5199 18.791 49.532 12.1548L49.5502 5.02286L50.6412 6.45528C53.8718 10.6982 57.9085 15.8778 59.4663 17.7817C60.8179 19.4377 62.2968 20.8581 63.5575 21.7042C63.8 21.8674 64.0182 22.0004 64.0364 22.0004C64.0545 22.0004 64.0667 17.3949 64.0667 11.7679C64.0667 1.76515 64.0727 1.53548 64.1818 1.34812C64.3334 1.10031 64.8243 0.74372 65.4304 0.429433L65.9092 0.181629H63.0666C61.5028 0.181629 60.2481 0.205805 60.2845 0.229981C60.3148 0.260201 60.5148 0.405257 60.733 0.556356C60.9512 0.707456 61.23 0.931083 61.3513 1.05196C61.3831 1.08288 61.4125 1.10842 61.4397 1.132L61.4397 1.13203C61.4709 1.15908 61.499 1.18353 61.5245 1.21054C61.7651 1.46583 61.7642 1.94885 61.7543 6.99558C61.7533 7.5015 61.7522 8.05328 61.7513 8.65529L61.7331 15.6844L60.3633 13.8712C59.6057 12.874 58.4419 11.3509 57.7691 10.4866C55.9872 8.1899 53.4597 4.62395 51.1867 1.19097L50.52 0.181629H48.0107H45.5014L45.859 0.411301ZM70.6853 1.2936C70.4792 1.00953 70.0671 0.671066 69.6004 0.386998L69.2549 0.181503H72.4673H75.6736L75.2494 0.423262C74.6614 0.749637 74.1705 1.15458 74.0492 1.40843C73.9523 1.60184 73.9462 2.32712 73.9462 10.4321C73.9462 19.208 73.9462 19.2442 74.0735 19.4981C74.2129 19.7942 74.8251 20.3865 75.3281 20.7189L75.6615 20.9426L74.0796 20.9607C73.2128 20.9668 71.7763 20.9668 70.8914 20.9607L69.2852 20.9426L69.7095 20.6102C70.2065 20.2294 70.5762 19.8305 70.7399 19.5102C70.849 19.2926 70.855 19.0085 70.855 10.4079V1.52931L70.6853 1.2936ZM16.5712 4.70806C15.2923 4.91355 14.2316 5.7718 13.7285 6.99873C13.5103 7.5306 13.4497 8.07456 13.5224 8.7817C13.6255 9.79105 13.9588 10.6251 14.5953 11.4834C15.0135 12.0455 16.353 13.363 16.9955 13.8526C18.3411 14.8619 19.5412 15.0916 20.7049 14.5658L21.0928 14.3905V10.4317V6.47895L20.8685 6.29763C20.5109 6.0196 19.6442 5.47565 19.226 5.26411C18.3107 4.80476 17.3046 4.59322 16.5712 4.70806ZM0.0727337 20.8161C0.0181834 20.8523 0 19.5348 0 14.3128C0 8.67977 0.0121223 7.78526 0.084856 7.85779C0.133345 7.90614 1.55165 9.68911 3.23665 11.8106C5.68535 14.893 6.29147 15.6908 6.23086 15.7452C6.06114 15.9023 0.145467 20.7738 0.0727337 20.8161ZM10.6128 14.3911C9.70358 15.1405 9.52781 15.3158 9.57023 15.4004C9.67933 15.5938 10.934 17.0625 11.4734 17.6306C12.7099 18.918 14.1888 19.7158 15.1647 19.6251C15.3586 19.607 15.5162 19.601 15.5162 19.607C15.5162 19.6131 15.1889 19.9032 14.7889 20.2477C14.3888 20.5861 14.0615 20.8762 14.0615 20.8883C14.0615 20.9004 15.6435 20.9125 17.577 20.9125H21.0925V18.368V15.8174L20.8197 16.0713C20.3833 16.4702 19.8681 16.7724 19.2923 16.9597C18.7953 17.1229 18.6983 17.135 17.8195 17.129C16.977 17.129 16.8254 17.1108 16.3345 16.9597C14.9586 16.5427 13.4675 15.479 12.1159 13.9498L11.7098 13.4905L10.6128 14.3911ZM2.66699 20.882L4.9581 18.9661C6.21276 17.9144 7.27346 17.0501 7.30983 17.0501C7.34619 17.0441 8.09778 17.9084 8.97058 18.96L10.5586 20.882L8.58267 20.9002C7.49772 20.9062 5.72181 20.9062 4.63686 20.9002L2.66699 20.882Z" fill="#D2A567"/>
</svg>
