<svg width="59" height="22" viewBox="0 0 59 22" fill="none" xmlns="http://www.w3.org/2000/svg">
<path fill-rule="evenodd" clip-rule="evenodd" d="M1.7109 0.977145C2.24494 0.443096 2.88095 0.117811 3.60434 0.0158563C3.68688 0.00614636 7.38638 -0.00356363 11.8336 0.00129136L19.9171 0.00614636L20.3055 0.137231C20.8493 0.321721 21.262 0.579036 21.6601 0.982C22.063 1.38011 22.3204 1.79279 22.5048 2.33655L22.6359 2.72494L22.6505 10.8328L22.6531 12.3554V12.3556C22.6643 18.699 22.6654 19.3086 22.4392 19.8171C22.4152 19.8712 22.3885 19.9241 22.3591 19.9827C22.3366 20.0275 22.3123 20.0756 22.2864 20.1301C22.097 20.5185 21.9999 20.6544 21.6455 21.0089C21.3105 21.3438 21.1454 21.4652 20.8153 21.6254C20.754 21.6556 20.7015 21.6833 20.6532 21.7088L20.6531 21.7088C20.5997 21.737 20.5515 21.7625 20.5022 21.7855C20.0384 22.0017 19.4738 22.0015 13.607 21.9997H13.6069H13.6059C13.0142 21.9995 12.3686 21.9993 11.6636 21.9993H3.55579L3.16739 21.8876C2.00705 21.5526 1.14772 20.6787 0.783591 19.4747C0.701056 19.1979 0.691346 18.7464 0.676781 11.2212C0.667071 5.71562 0.681636 3.15218 0.715621 2.91914C0.836996 2.13264 1.13315 1.55489 1.7109 0.977145ZM20.0094 2.84632C19.7472 2.29285 19.3588 1.95785 18.8248 1.8122C18.6742 1.76851 18.2227 1.72481 17.7712 1.71025L16.9896 1.67626L17.1983 2.0501C17.4168 2.43364 17.6644 3.13276 17.7664 3.67167C17.8003 3.84645 17.8246 4.3368 17.8246 4.76404C17.8198 5.63309 17.7372 6.11373 17.4702 6.808C17.1741 7.57508 17.0624 7.71588 15.4068 9.386C14.5572 10.2453 13.8678 10.9687 13.8775 10.9979C13.8969 11.0464 18.7519 16.0131 19.7229 16.9744L20.1842 17.4356L20.1744 10.2987L20.1599 3.16189L20.0094 2.84632ZM8.79919 2.79777C8.43506 2.32684 7.87188 1.953 7.28443 1.80249C7.07566 1.74909 6.72125 1.72967 5.83764 1.72967C4.84722 1.73452 4.6336 1.74423 4.41998 1.82191C3.92963 1.99184 3.55094 2.33655 3.32761 2.8269L3.21594 3.06479V10.9784V18.8921L3.37616 19.2174C3.57036 19.6155 3.9539 19.9796 4.34716 20.1398C4.59962 20.2418 4.69186 20.2515 5.49779 20.2515C6.48821 20.2466 6.84748 20.1738 7.5029 19.8534C7.935 19.6397 8.53216 19.1008 8.77006 18.7027C9.13904 18.0861 9.27983 17.3676 9.16817 16.7073C9.09534 16.3044 8.83803 15.7315 8.59528 15.4256C8.49332 15.3042 7.50776 14.2798 6.39597 13.1486C5.28903 12.0174 4.37143 11.0707 4.36172 11.0416C4.35201 11.0124 5.08512 10.2453 5.993 9.33259C8.72151 6.58952 8.93027 6.36619 9.13418 5.95352C9.64881 4.90484 9.52258 3.73964 8.79919 2.79777ZM15.4554 3.96297C15.1835 2.8803 14.3048 1.99184 13.2998 1.78307C12.9211 1.70539 10.8965 1.71025 10.9402 1.78793C10.9597 1.82191 11.0276 1.93358 11.0907 2.03553C11.251 2.29285 11.4743 2.86574 11.6054 3.34638C11.6976 3.69594 11.7122 3.86101 11.7073 4.73977C11.7073 5.66707 11.6976 5.76903 11.5762 6.22054C11.4063 6.83227 11.0325 7.58965 10.7023 7.97805C10.5664 8.14797 9.85758 8.89079 9.12933 9.6336L7.80877 10.9833L9.20701 12.4155C10.6441 13.8914 10.7946 14.0808 11.1344 14.8187C11.484 15.5761 11.6782 16.7365 11.586 17.5424C11.5325 18.023 11.2849 18.9066 11.0082 19.5961L10.9993 19.6186C10.8912 19.8912 10.7942 20.1357 10.78 20.1641C10.7606 20.2126 11.5665 20.2272 14.7077 20.2272C18.0431 20.2272 18.6985 20.2175 18.9024 20.1544C18.9367 20.1443 18.9695 20.136 18.9998 20.1284C19.0886 20.106 19.1565 20.0888 19.1799 20.0469C19.2558 19.9112 18.8668 19.5157 17.2195 17.8407C17.0386 17.6568 16.8426 17.4575 16.6303 17.2414C15.1592 15.746 13.1832 13.7312 12.2365 12.7651L10.513 11.0027L10.8189 10.6677C10.9888 10.4784 11.9744 9.46853 13.0085 8.415C14.9408 6.44387 15.1835 6.15743 15.3777 5.5991C15.5282 5.18157 15.5622 4.39021 15.4554 3.96297ZM24.869 20.2031L24.8544 10.9641L24.8447 1.72987H28.52C32.8458 1.73473 33.1225 1.75415 34.244 2.12313C35.3412 2.4824 36.3268 3.18637 36.8657 3.99715C37.6037 5.10895 37.8804 6.72081 37.5357 7.90057C37.492 8.04622 37.3609 8.35694 37.2444 8.59969C37.0405 9.02207 36.8997 9.22113 36.4627 9.7309L36.2588 9.9688L36.5744 10.2261C37.2929 10.8087 38.0115 11.8574 38.3222 12.7701C38.7349 13.9742 38.696 15.5375 38.2251 16.7901C37.9726 17.4601 37.6522 17.9553 37.123 18.4796C36.2248 19.3778 35.1567 19.873 33.6128 20.1157C33.1322 20.1886 32.6176 20.1983 28.9715 20.2031H24.869ZM34.0401 6.09937C33.7391 5.46336 33.2196 5.10409 32.3991 4.95844C32.0641 4.90018 31.564 4.88562 30.1318 4.88562H28.2918V6.92472V8.96381H30.8601H33.4284L33.608 8.7599C33.8362 8.48802 34.0983 7.96369 34.1663 7.62384C34.2003 7.47333 34.2149 7.14319 34.2052 6.88588C34.1906 6.48291 34.1712 6.37125 34.0401 6.09937ZM34.511 12.8867C34.2197 12.5711 33.909 12.3914 33.4089 12.2652C33.0594 12.173 32.8652 12.1681 30.661 12.1681H28.2918V14.5762V16.9794L30.661 16.9648C32.938 16.9454 33.04 16.9406 33.3847 16.8386C33.8702 16.6881 34.0935 16.5667 34.3896 16.2851C34.914 15.7899 35.1373 15.2705 35.1373 14.5519C35.1373 13.8771 34.9431 13.3624 34.511 12.8867ZM39.8467 10.9778V20.2266L41.5848 20.2169L43.318 20.2023L43.3326 16.765L43.3423 13.3325L44.323 13.3422L45.3037 13.3567L47.7118 16.7795L50.1199 20.2023L52.1444 20.2169C53.2562 20.2217 54.1689 20.212 54.1689 20.1877C54.1689 20.1683 53.0571 18.5662 51.6977 16.629L49.2217 13.114L49.6683 12.9635C51.1734 12.4537 52.3677 11.4536 53.0134 10.1524C53.931 8.31726 53.8048 5.76353 52.7173 4.16624C51.8919 2.94763 50.6102 2.20482 48.707 1.8407C48.3818 1.77758 47.6389 1.75816 44.0851 1.7436L39.8467 1.72418V10.9778ZM47.94 4.9576C48.6828 5.0984 49.3819 5.54991 49.7509 6.12766C50.1975 6.83649 50.2024 7.9677 49.7606 8.79305C49.4596 9.35137 48.775 9.84173 48.0225 10.0311C47.6778 10.1185 47.4787 10.1282 45.493 10.1282H43.3423V7.50648V4.88478H45.4493C47.1098 4.88478 47.6389 4.89934 47.94 4.9576ZM55.334 20.2266V10.9778V1.72903H57.1061H58.8781V10.9778V20.2266H57.1061H55.334Z" fill="#D2A567"/>
</svg>
