<svg width="53" height="16" viewBox="0 0 53 16" fill="none" xmlns="http://www.w3.org/2000/svg">
<path d="M7.03746 0.825751C4.09369 1.38767 1.75377 3.57662 0.965416 6.52878C0.848 6.99005 0.814453 7.401 0.814453 8.41581C0.82284 9.58157 0.839614 9.79124 1.0409 10.4538C1.87119 13.1627 3.95112 15.1336 6.68521 15.813C7.7755 16.073 9.31867 16.0646 10.4173 15.771C11.3399 15.5278 12.3128 15.0665 13.0843 14.4962L13.6211 14.1021L12.5644 13.0453L11.5076 11.9886L11.2644 12.1647C10.5348 12.7015 9.48641 13.0453 8.56386 13.0537C7.23874 13.0621 6.23233 12.6428 5.293 11.695C3.78338 10.177 3.4563 8.11388 4.42078 6.15976C5.28462 4.40692 7.38971 3.35018 9.28512 3.71081C9.90575 3.82823 10.6102 4.11338 11.0967 4.44046L11.5328 4.734L12.5644 3.70242C13.1347 3.14051 13.5959 2.65407 13.5959 2.62891C13.5959 2.60375 13.3779 2.42763 13.1095 2.22635C12.4386 1.72314 11.2476 1.15284 10.4509 0.943167C9.57027 0.716722 7.93485 0.658015 7.03746 0.825751Z" fill="#D2A567"/>
<path d="M16.1953 8.37432V15.6289H17.7049H19.2146V8.37432V1.11974H17.7049H16.1953V8.37432Z" fill="#D2A567"/>
<path d="M22.7383 8.33225V15.5449H24.206H25.6737L25.6904 11.3515L25.7156 7.15809L28.1058 11.3179C29.4226 13.6075 30.538 15.5365 30.5883 15.6036C30.6554 15.7042 31.1838 14.8488 33.1463 11.427L35.612 7.12455L35.6372 11.3347L35.654 15.5449H37.1216H38.5893V8.33225V1.11959L37.1133 1.13637L35.6456 1.16153L33.2889 5.4388C31.9973 7.7871 30.8819 9.83348 30.8064 9.98445L30.6638 10.2528L28.1478 5.68201L25.6401 1.11959H24.1892H22.7383V8.33225Z" fill="#D2A567"/>
<path d="M41.9434 8.38254V15.6455L45.491 15.6036C48.4096 15.5784 49.1057 15.5449 49.4831 15.4358C51.0011 14.983 52.0327 13.9514 52.343 12.5592C52.4856 11.9385 52.4688 10.7728 52.3011 10.2109C52.0746 9.4225 51.605 8.77672 50.9172 8.32383L50.7076 8.18126L51.0934 7.8374C52.1166 6.94001 52.4856 5.58135 52.1333 4.06334C51.7895 2.61242 50.6656 1.58923 49.0218 1.24537C48.5689 1.15312 47.7219 1.11957 45.1974 1.11957H41.9434V8.38254ZM48.0993 3.88721C48.8205 4.04656 49.2399 4.58332 49.2399 5.32974C49.2399 5.87489 49.1644 6.06778 48.8373 6.42841C48.4767 6.80582 47.9651 6.90646 46.3297 6.90646H44.8787V5.3549V3.80335H46.3297C47.118 3.80335 47.9231 3.84528 48.0993 3.88721ZM48.2922 9.68249C49.6844 10.0347 49.9024 12.0308 48.6193 12.685C48.2251 12.8863 48.1244 12.903 46.5393 12.9282L44.8787 12.9617V11.276V9.59024H46.3968C47.2522 9.59024 48.0741 9.63217 48.2922 9.68249Z" fill="#D2A567"/>
</svg>
