<svg width="96" height="22" viewBox="0 0 96 22" fill="none" xmlns="http://www.w3.org/2000/svg">
<path fill-rule="evenodd" clip-rule="evenodd" d="M68.1787 3.93406C68.1787 6.10044 68.1595 7.88253 68.1403 7.89694C68.1211 7.90655 67.9962 7.77686 67.8665 7.60873C67.0307 6.51834 65.5224 5.89389 63.7355 5.89869C61.915 5.90349 60.3971 6.54236 59.1098 7.8393C58.0146 8.9441 57.2988 10.414 56.977 12.2009C56.8377 13.0031 56.8041 14.5978 56.9098 15.4528C57.2604 18.2052 58.6534 20.3812 60.7045 21.3755C61.6316 21.8271 62.4002 22 63.4473 22C64.7587 22 65.9499 21.6397 66.9298 20.9528C67.3766 20.6406 67.977 20.021 68.2508 19.5838C68.3805 19.3821 68.5006 19.2284 68.5198 19.2476C68.5342 19.2716 68.5774 19.7376 68.6063 20.2948C68.6351 20.852 68.6735 21.3852 68.6879 21.4812L68.7167 21.6638H70.446H72.1753L72.1416 21.2891C72.1224 21.0873 72.0936 16.2166 72.0792 10.4716L72.0456 0.0240167L70.1146 0.00960621L68.1787 0V3.93406ZM65.6089 9.00655C66.5312 9.25633 67.4342 10.0393 67.8185 10.9328C68.1259 11.6389 68.2028 12.4026 68.1643 14.3384C68.1403 15.5633 68.1259 15.7266 68.0202 16.1445C67.7224 17.2878 67.0643 18.114 66.0796 18.5703C65.5368 18.8249 65.1766 18.8921 64.4801 18.8633C63.4857 18.8249 62.8036 18.5415 62.1504 17.893C61.5499 17.2974 61.1368 16.4904 60.9207 15.4624C60.7766 14.7996 60.7622 13.3345 60.8919 12.6332C61.2665 10.6061 62.3569 9.29956 63.9517 8.95852C64.3456 8.87205 65.2102 8.89607 65.6089 9.00655ZM8.4239 5.91341C7.53525 5.99987 6.6466 6.3169 5.91647 6.80686C5.47935 7.09987 4.86451 7.70991 4.56189 8.15664C4.32171 8.50729 4.19682 8.58895 4.19682 8.39201C4.19682 8.33437 4.1632 7.85402 4.12477 7.32563L4.12091 7.2726L4.1209 7.27248L4.1209 7.27243L4.12089 7.27228C4.08411 6.76655 4.05272 6.33498 4.05272 6.30249C4.05272 6.25926 3.68285 6.24485 2.36669 6.24485H0.680664L0.709485 6.49463C0.791144 7.18633 0.834376 10.1933 0.834376 15.6453V21.6641H2.73176H4.62433L4.63874 16.7261L4.65315 11.7929L4.78765 11.4086C5.09507 10.5392 5.537 9.92432 6.14224 9.52083C6.73307 9.12214 7.37673 8.97323 8.04442 9.07411C9.22608 9.25664 9.95621 10.1213 10.2252 11.6488C10.2877 12.009 10.2973 12.7872 10.2973 16.8654V21.6641H12.1946H14.0872L14.1064 16.7501C14.1208 11.9322 14.1256 11.8313 14.2217 11.423C14.6492 9.68895 16.3401 8.6562 17.9108 9.17978C18.8523 9.49681 19.4383 10.3374 19.6977 11.7448C19.7697 12.1243 19.7794 12.744 19.7938 16.9182L19.813 21.6641H21.7104H23.6077L23.5885 16.5339L23.5869 16.0595C23.5731 11.9634 23.5706 11.2063 23.4196 10.4801C23.3854 10.3154 23.3435 10.1523 23.2922 9.95223L23.2715 9.87149C22.9256 8.53611 22.2051 7.4121 21.2636 6.74441C20.1252 5.92782 18.4344 5.66843 16.8925 6.07673C16.3208 6.22563 15.9221 6.41297 15.3505 6.78764C14.606 7.2728 14.0632 7.80118 13.6069 8.46406C13.5012 8.61777 13.4003 8.74266 13.3811 8.74266C13.3619 8.74266 13.2946 8.62258 13.2322 8.47847C12.8287 7.54179 11.9112 6.64834 10.9361 6.24485C10.2444 5.95664 9.26931 5.82694 8.4239 5.91341ZM27.8063 6.61491C28.8823 6.21141 30.2033 5.95683 31.529 5.88958C32.9269 5.82233 34.3823 6.06731 35.367 6.53325C36.0155 6.84548 36.3662 7.10006 36.8609 7.62364C37.4662 8.26251 37.836 8.9398 38.129 9.95334C38.4028 10.9092 38.4076 10.9813 38.4461 15.852C38.4701 18.4507 38.5037 20.5114 38.5373 20.7468C38.5614 20.9725 38.5998 21.2656 38.619 21.4097L38.6478 21.6643H36.8897C35.5159 21.6643 35.1317 21.6498 35.1317 21.6018C35.1317 21.4625 34.8963 20.0311 34.8675 19.983C34.8531 19.9542 34.6705 20.1079 34.4448 20.3337C33.6954 21.0974 32.8404 21.5634 31.6539 21.8612C31.1496 21.9909 29.9295 22.0389 29.3627 21.9525C28.2867 21.7987 27.3356 21.3184 26.6247 20.5787C26.2356 20.1656 26.0483 19.8918 25.8129 19.3922C25.4814 18.6861 25.4046 18.3018 25.4094 17.3651C25.4094 16.6878 25.4286 16.4765 25.5151 16.1258C25.8945 14.6031 26.8552 13.4743 28.426 12.7105C29.8286 12.0284 31.4041 11.7018 33.8299 11.5961L34.5696 11.5673L34.536 11.1638C34.5168 10.9429 34.4688 10.6402 34.4303 10.4865C34.2094 9.6363 33.5705 9.03587 32.5858 8.75727C32.0958 8.62277 30.5924 8.63237 29.8574 8.78128C29.1129 8.93019 28.3731 9.17997 27.7583 9.4874C27.4701 9.6315 27.2347 9.74679 27.2299 9.73718C27.2011 9.68914 26.4854 7.23936 26.495 7.22975C26.5478 7.17692 27.5325 6.71578 27.8063 6.61491ZM34.3055 17.5813C34.5937 17.0097 34.6129 16.8656 34.6369 15.4293L34.6609 14.1228L34.0172 14.1276C31.2504 14.1564 29.6124 14.9682 29.2954 16.4621C29.209 16.8704 29.209 17.1826 29.2906 17.5861C29.5212 18.6669 30.2657 19.2241 31.481 19.2193C32.0862 19.2193 32.4177 19.1424 32.9701 18.8686C33.4889 18.614 34.0653 18.0568 34.3055 17.5813ZM48.9897 5.91341C47.4478 6.06712 45.9491 6.8693 45.1037 8.00293C44.9404 8.21428 44.7867 8.43044 44.7579 8.48328C44.7194 8.54092 44.6858 8.56013 44.6522 8.52651C44.6282 8.49769 44.5705 7.97411 44.5225 7.35926L44.436 6.24485H42.7356H41.0352L41.0592 6.68677C41.0784 6.93175 41.1024 10.4047 41.1168 14.3964L41.1408 21.6641H43.1103H45.0749V16.8221V16.5696C45.0748 12.2251 45.0748 11.6957 45.2587 11.2407C45.2842 11.1777 45.3131 11.1161 45.3461 11.046L45.3463 11.0456L45.3463 11.0455L45.3631 11.0099C46.026 9.59769 47.4142 8.83393 48.86 9.09812C49.4509 9.2038 49.8256 9.39594 50.2338 9.81384C50.7478 10.3326 51.0312 10.9859 51.1753 11.985C51.2042 12.1916 51.2234 14.1562 51.2234 16.9903V21.6641H53.1688H55.119L55.0998 16.4138C55.0854 11.7256 55.0758 11.1252 55.0037 10.7601C54.7972 9.73699 54.4849 8.88677 54.0718 8.21908C53.8028 7.78677 53.188 7.13349 52.7845 6.84528C51.7614 6.11515 50.378 5.77411 48.9897 5.91341ZM86.1833 7.39288C86.9471 6.67236 87.8261 6.3121 89.027 6.24485C89.8388 6.19681 90.0213 6.19201 90.1029 6.22563C90.1702 6.24965 90.1798 6.4514 90.1798 7.9597C90.1798 9.55926 90.175 9.66013 90.0981 9.63611C90.0501 9.6217 89.8195 9.58808 89.5794 9.55445C87.7877 9.32389 86.2457 10.2558 85.6933 11.9178C85.4291 12.7007 85.4243 12.8256 85.4243 17.4226V21.6641H83.4789H81.5335V15.9815C81.5335 10.7601 81.4855 7.47454 81.4086 6.5955L81.375 6.24485H83.0802H84.7855L84.8191 7.19114C84.8719 8.82913 84.9008 9.17978 84.9776 9.16537C85.0112 9.15577 85.1169 8.98764 85.2034 8.7859C85.434 8.25271 85.751 7.80118 86.1833 7.39288ZM74.8086 13.9545V21.6641H76.778H78.7475V13.9545V6.24485H76.778H74.8086V13.9545ZM92.0049 21.6641V13.9545V6.24485H93.9503H95.8957V13.9545V21.6641H93.9503H92.0049Z" fill="#D2A567"/>
</svg>
