<svg width="20" height="24" viewBox="0 0 20 24" fill="none" xmlns="http://www.w3.org/2000/svg">
<path d="M3.45935 2.83718L0.615234 5.66543V8.43123V11.2059L1.01897 11.5985C1.24327 11.8126 1.42271 12.0178 1.42271 12.0535C1.42271 12.0803 1.24327 12.2944 1.01897 12.5086L0.615234 12.91V15.7115V18.513L3.3786 21.261L6.13299 24H10.2601H14.3872L17.1057 21.2967L19.8152 18.6022V15.7026V12.8119L19.4384 12.4283L19.0616 12.0446L19.4384 11.661L19.8152 11.2773V8.38662V5.48699L17.0519 2.73903L14.2975 0H10.305H6.31243L3.45935 2.83718ZM16.5674 8.80595L16.1906 9.18959L15.2395 8.25279L14.2975 7.31599H10.278H6.2586L5.31654 8.26171L4.36551 9.20744L3.97075 8.82379L3.57598 8.43123L6.91355 5.11227L10.2601 1.78439L13.5977 5.10335L16.9442 8.43123L16.5674 8.80595ZM11.7764 10.5903L13.2836 12.0714L11.7674 13.5792L10.2601 15.0781L8.76178 13.5881L7.25449 12.0892L8.7528 10.5993C9.57823 9.76952 10.2601 9.10037 10.2601 9.10037C10.2691 9.10037 10.942 9.76952 11.7764 10.5903ZM5.28065 15.8364L6.13299 16.684H10.2601H14.3872L15.2395 15.8364C15.7061 15.3725 16.1188 14.9888 16.1547 14.9888C16.1906 14.9888 16.3879 15.1494 16.5943 15.3546L16.9711 15.7204L13.6605 19.0126C11.8392 20.8238 10.3139 22.3048 10.2601 22.3048C10.2152 22.3048 8.69 20.8327 6.87766 19.0305L3.57598 15.7472L3.9528 15.3725C4.15916 15.1584 4.35654 14.9888 4.38346 14.9888C4.41037 14.9888 4.81411 15.3725 5.28065 15.8364Z" fill="#D2A567"/>
</svg>
