<svg width="25" height="24" viewBox="0 0 25 24" fill="none" xmlns="http://www.w3.org/2000/svg">
<path d="M11.2292 0.0442848C5.98927 0.587345 1.69471 4.47278 0.656334 9.61236C0.503278 10.3714 0.458262 10.8155 0.443256 11.7396C0.419248 13.0027 0.506279 13.8218 0.779378 14.923C1.98281 19.7925 6.11231 23.4019 11.1091 23.951C11.6073 24.008 13.0688 24.017 13.609 23.969C17.0903 23.6569 20.3525 21.7367 22.3482 18.8234C23.4046 17.2812 24.0588 15.616 24.3439 13.7378C24.4069 13.3118 24.4219 13.1018 24.4339 12.2437C24.452 11.1365 24.4309 10.7975 24.2929 9.9694C23.5546 5.59791 20.4275 1.9885 16.16 0.575344C15.3887 0.320314 14.4973 0.131294 13.633 0.0412846C13.0898 -0.0157223 11.7784 -0.012722 11.2292 0.0442848ZM13.6841 1.0614C16.1569 1.34043 18.3417 2.36354 20.0884 4.06174C21.3998 5.33688 22.3302 6.81605 22.8974 8.53224C23.5066 10.3744 23.6147 12.5017 23.1945 14.3979C22.7233 16.5131 21.6459 18.4274 20.0704 19.9485C18.3477 21.6137 16.262 22.6038 13.7891 22.9399C13.2099 23.0179 11.6673 23.0179 11.0881 22.9399C10.5269 22.8618 9.99572 22.7568 9.53955 22.6308C9.32648 22.5738 9.1314 22.5198 9.1074 22.5138C8.98435 22.4868 8.18906 22.1748 7.85294 22.0218C5.62313 21.0076 3.72645 19.1714 2.61304 16.9572C0.548295 12.8377 1.22654 7.98318 4.35067 4.52679C6.04929 2.64858 8.37513 1.43644 10.9501 1.0884C11.7574 0.980389 12.8768 0.968388 13.6841 1.0614Z" fill="#D2A567"/>
<path d="M13.425 1.86399C13.2453 1.95389 13.1464 2.07376 12.9906 2.39143C12.8618 2.65815 12.7689 2.92187 12.6371 3.40735C12.5862 3.59615 12.5232 3.77596 12.4963 3.80293C12.4633 3.84189 12.4034 3.85688 12.2985 3.85688C12.1577 3.85688 12.1458 3.85088 11.984 3.67407C11.6934 3.3624 11.217 3.04773 11.0282 3.04773C10.8964 3.04773 10.8215 3.28448 10.7886 3.79694C10.7706 4.10561 10.7107 4.26744 10.5938 4.33936C10.5549 4.36334 10.3092 4.46823 10.0456 4.57312C9.45536 4.80687 8.58652 5.22343 8.11915 5.49914C7.7087 5.74487 7.41809 5.98162 7.17542 6.26932C6.99266 6.48809 6.76197 6.91663 6.70505 7.15338C6.66011 7.33619 6.61817 7.38114 6.25565 7.62388C5.25799 8.29218 4.37118 9.22719 3.91579 10.0903C3.86785 10.1802 3.81093 10.2791 3.78996 10.309C3.76 10.351 3.76299 10.366 3.79895 10.39C3.82291 10.4049 3.86186 10.4199 3.88283 10.4199C3.90081 10.4199 4.14348 10.2012 4.42211 9.93144C5.43475 8.94848 6.04593 8.46599 6.82788 8.03445C6.99865 7.94155 7.16943 7.83666 7.20538 7.80369C7.24133 7.77073 7.30724 7.63587 7.35218 7.50101C7.5649 6.85969 7.91243 6.40118 8.47567 6.02957C8.86815 5.76585 10.8575 4.84583 11.4537 4.65103C11.9151 4.4982 12.3555 4.4023 12.4004 4.44725C12.4214 4.46823 12.4064 4.54614 12.3645 4.67801C12.3075 4.84882 12.3045 4.88479 12.3405 4.90876C12.4124 4.95371 12.4963 4.93873 12.6581 4.84583C12.8558 4.73195 12.9517 4.5911 13.0146 4.32138C13.2183 3.4583 13.434 2.90388 13.6407 2.72108C13.8565 2.53228 14.0931 2.62518 14.4557 3.04174C14.7283 3.35641 14.944 3.69505 15.1687 4.16555C15.5132 4.88778 15.693 5.58904 15.7679 6.48209C15.7919 6.77279 15.7709 6.80575 15.5402 6.83272C15.4533 6.84471 15.3694 6.86569 15.3515 6.88367C15.3035 6.93162 15.3904 7.06048 15.678 7.35117C15.8877 7.56095 15.9986 7.64786 16.1724 7.73477C16.454 7.87262 16.6757 7.93256 16.9064 7.93256C17.2689 7.93256 17.4307 7.74675 17.4307 7.3272C17.4307 7.19834 17.4426 7.09345 17.4546 7.09345C17.4696 7.09345 17.6014 7.17736 17.7482 7.27925C18.8807 8.06142 19.42 8.80763 19.6597 9.91646C19.6956 10.0723 19.7256 10.0004 19.7855 9.64674C19.8634 9.17324 19.8634 8.38508 19.7855 8.02246C19.6387 7.34218 19.3211 6.73383 18.8448 6.22137L18.7159 6.08052L18.9227 6.11948C19.2462 6.18241 19.3691 6.21837 19.7316 6.36522C19.9173 6.44014 20.0761 6.49408 20.0821 6.48809C20.1001 6.47011 19.7046 6.03557 19.4769 5.82879C19.2043 5.58005 18.8777 5.33431 18.5272 5.11554C18.2366 4.92974 17.5385 4.57611 17.2389 4.45624C17.0112 4.36634 16.8135 4.2135 16.6337 3.99173C16.1843 3.43133 15.9417 3.20656 14.8781 2.37944C14.2669 1.90594 14.1111 1.82203 13.7756 1.79806C13.6078 1.78607 13.5599 1.79506 13.425 1.86399Z" fill="#D2A567"/>
<path d="M13.8448 4.31207C13.708 4.47172 13.6188 4.7112 13.598 4.97729C13.5742 5.2818 13.6069 5.34093 13.9132 5.54198C14.0649 5.63954 14.3147 5.85241 14.5228 6.05641C14.7191 6.24858 14.8945 6.40527 14.9183 6.40527C15.0105 6.40527 14.9332 5.72824 14.7905 5.27589C14.6745 4.91224 14.4663 4.52494 14.2849 4.34164C14.0827 4.1406 13.9965 4.13468 13.8448 4.31207Z" fill="#D2A567"/>
<path d="M10.4645 5.40879C10.3024 5.57526 10.1963 5.64958 9.86915 5.81902C9.24428 6.14601 8.89648 6.40463 8.89648 6.54137C8.89648 6.6038 9.0527 6.58001 9.26786 6.48786C9.38281 6.4403 9.73061 6.33328 10.043 6.25302C10.6532 6.08953 10.9008 5.98846 11.1336 5.80415C11.3163 5.65849 11.334 5.55148 11.2014 5.42068C11.1189 5.33745 10.83 5.20962 10.721 5.20962C10.6885 5.20962 10.5765 5.29583 10.4645 5.40879Z" fill="#D2A567"/>
<path d="M11.93 5.25095C11.93 5.27809 11.9421 5.2992 11.9571 5.2992C11.9692 5.2992 12.0143 5.3595 12.0535 5.43186C12.1107 5.54343 12.1167 5.57659 12.0896 5.63991C12.0685 5.68213 11.8517 5.86002 11.5958 6.04395C11.3428 6.22486 11.0989 6.42085 11.0507 6.48115C11.0026 6.53844 10.9333 6.67413 10.8972 6.77664C10.8068 7.03595 10.7346 7.08419 10.4184 7.10228C10.2738 7.10831 10.0631 7.09625 9.91852 7.06912C9.61137 7.01484 9.46081 7.03896 9.20184 7.18369C8.92179 7.34048 8.8435 7.32541 8.69595 7.08419C8.65379 7.01484 8.60561 6.95755 8.59056 6.95755C8.54238 6.95755 8.44 7.10831 8.40386 7.22591C8.35267 7.40079 8.40988 7.55758 8.6026 7.76864C8.69294 7.86513 8.76822 7.9586 8.76822 7.97066C8.76822 7.98574 8.708 8.07318 8.63272 8.16363C8.39483 8.45309 8.3346 8.64908 8.41892 8.86919C8.47613 9.02296 8.56045 9.10739 8.63573 9.09231C8.66584 9.08628 8.73209 9.02296 8.78027 8.94758C9.1115 8.44103 9.20786 8.36263 9.48189 8.39279C9.64148 8.40786 9.68966 8.40183 9.82818 8.33851C9.97573 8.26916 10.4515 7.91036 10.5358 7.80181C10.596 7.72643 10.581 7.80482 10.4846 8.04001C10.3521 8.36565 10.2016 8.64003 10.048 8.83301C9.76795 9.18578 9.31024 9.44509 8.83146 9.52349C8.65379 9.55364 8.61766 9.56871 8.61766 9.61696C8.61766 9.69234 8.86759 9.80691 9.16571 9.87023C9.44876 9.93054 9.96067 9.91546 10.1474 9.83707C10.3461 9.75566 10.4846 9.56871 10.6502 9.17071C10.8219 8.75461 10.9815 8.48626 11.3398 7.9978C11.6379 7.59074 11.7283 7.43395 11.7012 7.3646C11.6771 7.3043 11.5536 7.24098 11.4091 7.21385C11.3489 7.20178 11.2977 7.18068 11.2977 7.1656C11.2977 7.11133 11.5958 6.9274 12.1258 6.65905C12.8966 6.26707 13.0803 6.1133 13.0803 5.86002C13.0803 5.64896 12.8846 5.46503 12.4992 5.30824C12.2552 5.20874 11.93 5.17557 11.93 5.25095Z" fill="#D2A567"/>
<path d="M14.1741 7.05164C14.1652 7.0817 14.1711 7.14481 14.192 7.19591C14.3916 7.68885 14.484 8.19681 14.4482 8.61159C14.4005 9.18568 14.2873 9.57943 13.7898 10.8689C13.4293 11.8096 13.4084 11.8878 13.4263 12.3086C13.4501 12.8346 13.5842 13.1442 14.1413 13.9587C14.2903 14.1751 14.4691 14.4517 14.5406 14.5749C14.6955 14.8424 14.8504 15.3023 14.8504 15.4946C14.8504 15.5698 14.8623 15.6299 14.8772 15.6299C14.9517 15.6299 15.2526 15.1129 15.3569 14.8063C15.4552 14.5118 15.491 14.1661 15.4493 13.8685C15.3956 13.4808 15.2914 13.1802 14.9845 12.534C14.6717 11.8758 14.6299 11.7465 14.6478 11.467C14.6657 11.1754 14.6895 11.1694 14.9517 11.4099C15.0768 11.5241 15.2943 11.6894 15.4344 11.7736C15.8485 12.0261 15.8991 11.99 15.7025 11.5932C15.4791 11.1454 15.4344 10.929 15.4463 10.3399C15.4642 9.37203 15.4552 8.97829 15.4075 8.75887C15.345 8.46431 15.205 8.1427 15.0232 7.85716C14.8653 7.61671 14.2992 7.00355 14.2307 7.00355C14.2099 7.00355 14.186 7.02459 14.1741 7.05164Z" fill="#D2A567"/>
<path d="M12.4875 7.3074C12.2282 7.40107 12.0135 7.70326 11.9033 8.12934C11.8466 8.34993 11.7989 8.86667 11.7989 9.27159C11.7989 9.57378 11.7572 9.83366 11.7006 9.87898C11.6767 9.90014 11.5903 9.89409 11.4561 9.86388C10.9404 9.75207 10.6066 9.9364 10.1952 10.5559C10.0611 10.7583 10.0194 10.7976 9.85244 10.8822C9.69744 10.9578 9.6259 10.9759 9.45301 10.9789C8.99396 10.982 8.80617 10.849 8.57069 10.3564C8.31732 9.82459 8.15039 9.6735 7.82846 9.6735C7.66452 9.6735 7.20547 9.81553 7.18758 9.86992C7.1846 9.88503 7.2621 9.92431 7.36643 9.95453C7.64961 10.0391 7.80163 10.1207 7.85231 10.2265C7.8851 10.2869 7.90894 10.4562 7.92385 10.716C7.95962 11.263 8.04308 11.4957 8.30539 11.7465C8.54386 11.9761 8.91944 12.0517 9.36061 11.958C9.78984 11.8674 10.079 11.9036 10.4307 12.094C10.6155 12.1937 11.006 12.5533 11.1372 12.7407C11.2385 12.8887 11.2773 12.8102 11.2773 12.4445C11.2773 12.1665 11.2683 12.1212 11.1938 11.9761C11.0835 11.7616 10.9047 11.5682 10.6901 11.4352C10.5947 11.3748 10.5172 11.3083 10.5172 11.2872C10.5172 11.2237 10.6662 11.0635 10.7884 11.0031C10.9315 10.9276 11.1223 10.9276 11.2803 11.0001C11.5128 11.1089 11.7363 11.4564 11.9301 12.0245C12.1179 12.5745 12.1596 12.8434 12.1775 13.5928C12.1954 14.3634 12.2103 14.3966 12.3772 14.0612C12.6455 13.5203 12.7826 12.9341 12.7826 12.3237C12.7826 11.6891 12.6902 11.3083 12.3832 10.6737C12.1864 10.2688 12.1805 10.1993 12.2908 9.74904C12.6067 8.47685 13.0121 7.82715 13.6172 7.61865C13.6917 7.59447 13.7573 7.55821 13.7633 7.5431C13.7812 7.49475 13.4652 7.3497 13.2446 7.30135C12.9793 7.24394 12.6544 7.24696 12.4875 7.3074Z" fill="#D2A567"/>
<path d="M20.8951 7.70763C20.8951 7.71964 20.9341 7.8908 20.9851 8.08898C21.099 8.55741 21.2069 9.15196 21.2758 9.69846C21.3508 10.305 21.3508 11.8454 21.2758 12.431C21.1649 13.2868 20.8652 14.4458 20.6703 14.7581L20.5984 14.8782L20.5954 14.7431C20.5954 14.5449 20.5264 14.1936 20.3555 13.485C20.0828 12.3469 20.0018 11.6713 20.0558 10.9987C20.0918 10.5332 20.0947 10.5693 20.0408 10.5693C19.9778 10.5693 19.711 10.9626 19.6361 11.1668C19.5522 11.389 19.4682 11.7524 19.4233 12.0857C19.3993 12.2628 19.3843 12.8544 19.3813 13.7972C19.3783 15.3256 19.3633 15.5328 19.2134 16.2415C19.0066 17.2024 18.509 18.0852 17.7955 18.7578C17.5017 19.0371 17.193 19.2833 17.169 19.2593C17.16 19.2473 17.181 19.1722 17.2139 19.0851C17.5797 18.1813 17.7505 17.2114 17.7595 15.9742C17.7655 15.3106 17.7715 15.2085 17.8135 15.1995C17.8405 15.1935 17.9334 15.2746 18.0323 15.3887C18.2991 15.692 18.3231 15.674 18.437 15.0434C18.6139 14.0885 18.5239 12.8243 18.2122 11.8274C18.0743 11.389 18.0743 11.395 18.1702 11.401C18.2512 11.404 18.5539 11.5392 18.7458 11.6563C18.8567 11.7223 18.8627 11.7223 18.9017 11.6713C18.9526 11.5992 18.9286 11.1908 18.8507 10.7945C18.7428 10.242 18.497 9.78554 18.1133 9.42221C17.9364 9.25405 17.16 8.67452 16.9981 8.58744C16.8812 8.52438 16.8063 8.62948 16.8752 8.7616C16.8932 8.78862 16.9441 8.89372 16.9921 8.99582C17.0401 9.09491 17.187 9.34414 17.3159 9.55133C17.5617 9.94169 17.7775 10.3981 17.7775 10.5242C17.7775 10.5663 17.7685 10.5993 17.7595 10.5993C17.7475 10.5993 17.6216 10.5603 17.4777 10.5092C17.178 10.4071 16.8033 10.3471 16.6354 10.3741C16.5005 10.3981 16.4945 10.4161 16.5814 10.4972C16.8003 10.6954 17.2379 11.5332 17.4418 12.1457C17.6336 12.7162 17.6966 13.1066 17.6996 13.7072C17.7026 14.2927 17.6966 14.3077 17.4717 14.1366C17.199 13.9294 16.6144 13.7102 16.4765 13.7612C16.4106 13.7882 16.4195 13.8303 16.5634 14.1816C16.6863 14.4879 16.8033 14.9443 16.8482 15.3136C16.9112 15.8301 16.8752 16.5628 16.7703 16.9802C16.7163 17.1844 16.5514 17.5957 16.5245 17.5957C16.5125 17.5957 16.4705 17.4546 16.4315 17.2834C16.3116 16.764 16.1498 16.5087 16.0658 16.7159C16.0478 16.761 16.0029 16.8661 15.9699 16.9501C15.7031 17.5837 15.1845 18.0852 14.5789 18.3074C14.471 18.3464 14.3781 18.3735 14.3721 18.3674C14.3661 18.3614 14.3871 18.3104 14.4201 18.2533C14.6449 17.848 14.7198 17.5897 14.7198 17.2174C14.7198 16.7339 14.5849 16.4036 14.2582 16.0793C13.5567 15.3797 12.4925 15.4818 11.7341 16.3166C11.3654 16.7189 11.0207 17.3946 10.8348 18.0702C10.7029 18.5536 10.6819 18.5927 10.553 18.6257C10.3911 18.6677 9.81858 18.6287 9.56377 18.5566C9.07814 18.4185 8.72141 18.1512 8.64947 17.872C8.58352 17.6228 8.67645 17.3255 8.90727 17.0462C8.99121 16.9441 8.9972 16.9411 9.255 16.9291C9.69867 16.9051 10.2952 16.6709 10.7599 16.3436C11.0087 16.1664 11.4164 15.7731 11.5932 15.5388C11.8121 15.2506 11.854 15.1335 11.854 14.8032C11.854 14.3257 11.6682 13.9083 11.2845 13.527C10.9727 13.2177 10.6579 13.0465 10.1393 12.9054C9.95647 12.8574 9.81858 12.8424 9.48883 12.8424C8.69143 12.8424 8.36768 12.9865 7.18958 13.8813C6.91978 14.0855 6.60502 14.3077 6.48511 14.3798L6.26928 14.5089L6.03546 14.4639C5.61877 14.3828 5.46589 14.3077 5.22907 14.0675C4.9323 13.7672 4.7914 13.4819 4.77342 13.1426C4.75843 12.8334 4.83337 12.5901 5.09417 12.1157C5.28603 11.7704 5.36697 11.5542 5.36697 11.395C5.36697 11.3019 5.35497 11.2929 5.16612 11.2209C5.05221 11.1818 4.87534 11.1098 4.77042 11.0647C4.54559 10.9686 4.29378 10.9386 4.12291 10.9866C4.05696 11.0047 3.88609 11.0857 3.73921 11.1698C3.59532 11.2509 3.47241 11.32 3.46342 11.32C3.45442 11.32 3.44843 11.2509 3.44843 11.1698C3.44843 10.7224 3.04074 11.1938 3.00477 11.6803C2.99277 11.8755 2.99577 11.8935 3.10669 12.0737C3.2206 12.2658 3.52937 12.5931 3.85312 12.8694C3.95204 12.9535 4.05696 13.0676 4.08394 13.1246C4.11092 13.1817 4.20985 13.3889 4.30278 13.584C4.51861 14.0495 4.74344 14.3858 5.00124 14.629C5.24706 14.8602 5.49287 14.9893 5.81063 15.0614C6.12539 15.1305 6.17935 15.1605 6.5061 15.4758C6.82685 15.7821 7.21056 16.0073 7.4234 16.0163L7.54031 16.0193L7.53432 15.8842C7.50734 15.3767 7.49235 14.611 7.51033 14.5419C7.53132 14.4488 7.66322 14.3197 7.97498 14.0855C8.70942 13.536 9.50681 13.5 10.0284 13.9954C10.1183 14.0825 10.1933 14.1756 10.1933 14.2026C10.1933 14.2326 10.1453 14.2747 10.0764 14.3077C9.9235 14.3768 9.74363 14.5569 9.64771 14.7341C9.60274 14.8152 9.48883 15.1245 9.3899 15.4247C9.19505 16.0073 9.08713 16.2145 8.91027 16.3376C8.81734 16.4006 8.76937 16.4096 8.56253 16.4096C8.35269 16.4066 8.28374 16.3916 8.04693 16.2955C7.71718 16.1604 7.65422 16.1574 7.61226 16.2625C7.57029 16.3796 7.63024 16.773 7.75015 17.1303C7.945 17.7188 8.18182 18.3254 8.26576 18.4455C8.43963 18.6978 8.90727 18.974 9.36592 19.0941C9.69267 19.1812 10.9397 19.3463 11.2875 19.3494L11.4373 19.3524L11.4583 18.992C11.4853 18.5476 11.5273 18.2804 11.6232 17.9711C11.872 17.1723 12.2707 16.6048 12.7593 16.3646C13.1161 16.1904 13.4368 16.2115 13.6886 16.4337C13.9764 16.6859 14.0693 17.1093 13.9434 17.5987C13.8265 18.0492 13.5717 18.4936 13.182 18.9109C13.0531 19.0461 12.9512 19.1752 12.9512 19.1992C12.9512 19.3644 13.4998 19.3584 14.2822 19.1872C14.6779 19.1001 15.0226 18.977 15.4213 18.7788C15.6042 18.6917 15.7571 18.6227 15.763 18.6317C15.787 18.6557 15.6461 19.2232 15.5532 19.4725C15.3793 19.9499 15.0586 20.5505 14.6539 21.163C14.576 21.2861 14.51 21.3972 14.51 21.4153C14.51 21.4693 14.7978 21.4213 15.1545 21.3102C17.4807 20.5895 19.3603 19.1632 20.6074 17.1753C21.1559 16.3045 21.6056 15.1995 21.8334 14.1726C22.0133 13.3678 22.0463 13.0315 22.0463 12.0106C22.0463 11.1818 22.0403 11.0137 21.9803 10.6443C21.8514 9.82758 21.6356 9.06788 21.3118 8.30218C21.099 7.79471 21.036 7.68661 20.9551 7.68661C20.9221 7.68661 20.8951 7.69562 20.8951 7.70763ZM4.50063 11.4461C4.51861 11.4731 4.47664 11.5332 4.37772 11.6352C4.17987 11.8364 4.17687 11.9115 4.37172 12.1337C4.45266 12.2208 4.52761 12.3319 4.5366 12.3769C4.56358 12.476 4.51861 12.5991 4.44067 12.6382C4.38971 12.6652 4.35074 12.6442 4.18287 12.497C3.91607 12.2688 3.62829 11.9265 3.62829 11.8394C3.62829 11.7343 3.90108 11.5061 4.12891 11.4221C4.25781 11.374 4.46465 11.386 4.50063 11.4461ZM7.07566 14.7371C7.07566 14.8512 7.08766 15.0164 7.10264 15.1064C7.1566 15.4187 7.1656 15.5238 7.14161 15.5238C7.12962 15.5238 7.05168 15.4668 6.97074 15.4007C6.79688 15.2566 6.59603 15.0013 6.59603 14.9233C6.59603 14.8482 6.69495 14.7311 6.85683 14.626C7.06068 14.4909 7.07566 14.4969 7.07566 14.7371ZM10.7838 14.7461C10.8918 14.7851 10.9727 14.8872 10.9727 14.9773C10.9727 15.1124 10.8288 15.3617 10.6699 15.5058C10.5081 15.6529 9.86354 15.9983 9.86354 15.9412C9.86354 15.8571 9.93249 15.5058 9.95947 15.4518C9.98945 15.3977 10.0734 15.3977 10.2742 15.4518C10.3192 15.4638 10.3612 15.4488 10.4151 15.3917C10.5081 15.3016 10.52 15.1245 10.4481 14.9233C10.4241 14.8542 10.4031 14.7701 10.4031 14.7371C10.4031 14.6831 10.4181 14.6801 10.562 14.6981C10.6459 14.7101 10.7479 14.7311 10.7838 14.7461ZM8.3437 16.746C8.45761 16.788 8.54455 16.839 8.54455 16.8631C8.54455 16.9381 8.33171 17.1453 8.25377 17.1453C8.19381 17.1453 8.16683 17.1123 8.09489 16.9561C7.97798 16.7129 7.97798 16.6048 8.09189 16.6529C8.11887 16.6619 8.22979 16.7039 8.3437 16.746Z" fill="#D2A567"/>
<path d="M6.56837 10.3126C6.36334 10.4005 6.18354 10.552 6.04475 10.7551C5.97851 10.8521 5.8965 10.9703 5.8618 11.0157C5.7924 11.1188 5.81133 11.1885 5.90911 11.1885C5.95958 11.1885 6.0479 11.1248 6.17092 11.0036C6.40434 10.7763 6.69139 10.5763 6.92481 10.4763C7.02259 10.4338 7.10145 10.3884 7.10145 10.3732C7.10145 10.3156 6.95951 10.249 6.83333 10.249C6.76394 10.249 6.64407 10.2793 6.56837 10.3126Z" fill="#D2A567"/>
<path d="M6.82342 11.0864C6.41864 11.2876 6.02285 11.8148 5.69603 12.5921C5.63906 12.7292 5.63606 12.7597 5.67204 12.7841C5.69603 12.7993 5.72301 12.8115 5.73501 12.8115C5.747 12.8115 5.85194 12.6744 5.96888 12.5067C6.08582 12.3391 6.27172 12.1105 6.38266 11.9947C6.74247 11.6228 7.02132 11.4674 7.37813 11.443C7.59401 11.4247 7.60301 11.4217 7.612 11.3455C7.618 11.2815 7.59401 11.2418 7.48007 11.1473C7.36014 11.0437 7.31816 11.0285 7.15625 11.0193C7.00933 11.0132 6.94336 11.0254 6.82342 11.0864Z" fill="#D2A567"/>
<path d="M7.31025 11.9163C6.84519 12.1033 6.38322 12.5446 6.13375 13.0412C6.03828 13.2282 5.88737 13.642 5.90585 13.6603C5.93357 13.6879 6.06908 13.5929 6.27235 13.4029C6.74356 12.9646 7.18705 12.7132 7.49811 12.7071C7.65519 12.704 7.68598 12.7163 7.84305 12.8358C8.05556 12.9983 8.10792 12.9891 8.21571 12.7745C8.35123 12.5017 8.31427 12.2657 8.10792 12.0941C7.85845 11.8826 7.55663 11.8182 7.31025 11.9163Z" fill="#D2A567"/>
</svg>
