<svg width="17" height="24" viewBox="0 0 17 24" fill="none" xmlns="http://www.w3.org/2000/svg">
<path d="M7.49686 0.622768C7.03281 0.987349 6.62193 1.30818 6.58809 1.34221C6.53009 1.39568 6.56876 1.48804 6.82012 1.88179C7.71438 3.31094 8.73432 4.5651 9.86544 5.61509C10.3392 6.06231 11.3446 6.8498 11.6105 6.99077C11.7845 7.07827 11.77 7.10258 11.4123 7.25327C11.2672 7.31161 10.866 7.50119 10.5277 7.67132C10.1845 7.84146 9.87994 7.98243 9.85093 7.98243C9.8171 7.98243 9.49806 7.71993 9.13553 7.40396C7.79172 6.21786 6.53492 4.64288 5.66483 3.04844C5.50531 2.75192 5.35547 2.48456 5.33613 2.45539C5.30713 2.41164 5.0606 2.57206 4.47571 3.00469C4.02616 3.34011 3.61528 3.64149 3.56695 3.68038C3.47994 3.73872 3.47994 3.7533 3.58628 3.9526C4.01166 4.79843 4.96392 6.23245 5.7035 7.14633C6.20139 7.76855 7.19232 8.8477 7.46785 9.07617C7.5887 9.17826 7.69021 9.27548 7.69021 9.29492C7.69021 9.31437 7.46302 9.49909 7.18749 9.69839C6.91196 9.90256 6.59293 10.1505 6.48175 10.2428L6.27389 10.4178L5.93553 10.0873C5.08477 9.24631 3.95365 7.85118 3.26241 6.79147C2.94821 6.31022 2.30531 5.12412 2.21831 4.87135C2.19897 4.80329 0.439453 6.09634 0.439453 6.18384C0.439453 6.28592 1.04852 7.45258 1.39655 8.00674C1.59474 8.32757 2.00078 8.91576 2.30048 9.31923C2.76453 9.93659 3.1464 10.4032 4.39353 11.8713L4.55788 12.0609L3.98266 12.7317C2.56634 14.3845 1.77843 15.4588 1.06785 16.7032C0.734317 17.2914 0.424952 17.9331 0.449121 17.9962C0.468456 18.0497 2.16513 19.3087 2.21831 19.3087C2.23764 19.3039 2.40682 18.983 2.59534 18.5893C3.26725 17.199 4.21468 15.8768 5.66966 14.297L6.24489 13.6699L6.66544 14.0004C6.89746 14.1852 7.20682 14.4136 7.35184 14.5206C7.49686 14.6227 7.6322 14.7199 7.65154 14.7345C7.67087 14.7539 7.41951 15.0407 7.09565 15.3713C6.07087 16.4213 5.28296 17.3983 4.52405 18.5553C4.02616 19.3185 3.46544 20.3296 3.51377 20.3782C3.57661 20.4365 5.27329 21.6421 5.29263 21.6421C5.30229 21.6421 5.44731 21.3941 5.61166 21.0928C6.6171 19.2893 8.00441 17.6074 9.52223 16.3532C9.70592 16.1976 9.86544 16.1053 9.90894 16.115C9.95244 16.1296 10.3343 16.3046 10.7597 16.499C11.1851 16.6983 11.5863 16.8831 11.6443 16.9074C11.7555 16.9511 11.7361 16.9706 11.3494 17.2282C10.1796 18.0108 9.02435 19.124 7.97541 20.4803C7.6032 20.9566 6.53009 22.5462 6.53009 22.6143C6.53009 22.6532 8.2461 23.9705 8.33311 23.9997C8.36695 24.0094 8.5168 23.8004 8.67148 23.5379C10.1651 20.9372 13.1089 18.6622 15.6805 18.1129C15.8642 18.074 16.0963 18.0449 16.2026 18.0449H16.3911V16.6692V15.2984L15.9657 15.2886C15.5114 15.2789 14.854 15.1817 14.2401 15.0261C13.6745 14.8803 12.524 14.4963 12.524 14.4525C12.524 14.3991 13.6358 13.9567 14.1676 13.7963C14.6993 13.6359 15.376 13.4949 15.9706 13.4171L16.4395 13.3588L16.4298 12.022L16.4153 10.6803L16.0286 10.6463C15.492 10.5977 14.6993 10.4373 14.1095 10.2623C13.6165 10.1164 12.5869 9.71298 12.5095 9.64006C12.4515 9.58659 13.8195 9.13937 14.5059 8.98381C15.144 8.84284 15.7579 8.76021 16.1591 8.76021H16.4395L16.4298 7.38452L16.4153 6.0137L16.0672 5.97967C15.3857 5.91162 14.5156 5.62967 13.6842 5.21162C11.7023 4.2151 9.91861 2.54289 8.71982 0.549852C8.55063 0.26791 8.39595 0.0199947 8.37661 0.000549316C8.35728 -0.0140324 7.9609 0.263048 7.49686 0.622768ZM10.3005 11.2831C10.5953 11.4727 11.0014 11.706 11.1996 11.8081C11.3978 11.9102 11.5573 12.0025 11.5573 12.0171C11.5573 12.0317 11.3978 12.1289 11.2092 12.2359C10.8999 12.3963 10.2425 12.7998 9.8606 13.0525L9.73492 13.14L9.06302 12.688C8.69081 12.44 8.33311 12.1921 8.26544 12.1387L8.13976 12.0414L8.34761 11.8859C8.52646 11.7449 9.72042 10.9477 9.74942 10.9477C9.75426 10.9477 10.0008 11.0984 10.3005 11.2831Z" fill="#D2A567"/>
</svg>
