<svg width="180" height="180" viewBox="0 0 180 180" fill="none" xmlns="http://www.w3.org/2000/svg">
<rect width="180" height="180" fill="white"/>
<path fill-rule="evenodd" clip-rule="evenodd" d="M20 36.8966V53.7931H36.8966H53.7931V36.8966V20H36.8966H20V36.8966ZM58.6207 22.4138V24.8276H65.8621H73.1034V29.6552V34.4828H70.6897H68.2759V32.069V29.6552H65.8621H63.4483V32.069V34.4828H65.8621H68.2759V39.3103V44.1379H65.8621H63.4483V46.5517V48.9655H61.0345H58.6207V53.7931V58.6207H61.0345H63.4483V61.0345V63.4483H61.0345H58.6207V65.8621V68.2759H61.0345H63.4483V70.6897V73.1034H65.8621H68.2759V70.6897V68.2759H70.6897H73.1034V73.1034V77.931H68.2759H63.4483V80.3448V82.7586H61.0345H58.6207V77.931V73.1034H56.2069H53.7931V70.6897V68.2759H51.3793H48.9655V70.6897V73.1034H51.3793H53.7931V75.5172V77.931H48.9655H44.1379V68.2759V58.6207H39.3103H34.4828V63.4483V68.2759H32.069H29.6552V63.4483V58.6207H24.8276H20V63.4483V68.2759H22.4138H24.8276V70.6897V73.1034H22.4138H20V77.931V82.7586H22.4138H24.8276V77.931V73.1034H29.6552H34.4828V77.931V82.7586H32.069H29.6552V85.1724V87.5862H24.8276H20V92.4138V97.2414H24.8276H29.6552V102.069V106.897H27.2414H24.8276V104.483V102.069H22.4138H20V111.724V121.379H29.6552H39.3103V118.966V116.552H41.7241H44.1379V114.138V111.724H48.9655H53.7931V114.138V116.552H51.3793H48.9655V118.966V121.379H51.3793H53.7931V118.966V116.552H56.2069H58.6207V121.379V126.207H63.4483H68.2759V131.034V135.862H63.4483H58.6207V140.69V145.517H68.2759H77.931V147.931V150.345H75.5172H73.1034V152.759V155.172H70.6897H68.2759V157.586V160H73.1034H77.931V157.586V155.172H80.3448H82.7586V157.586V160H85.1724H87.5862V157.586V155.172H85.1724H82.7586V152.759V150.345H85.1724H87.5862V145.517V140.69H77.931H68.2759V138.276V135.862H73.1034H77.931V128.621V121.379H75.5172H73.1034V123.793V126.207H70.6897H68.2759V123.793V121.379H65.8621H63.4483V118.966V116.552H61.0345H58.6207V114.138V111.724H61.0345H63.4483V106.897V102.069H58.6207H53.7931V99.6552V97.2414H51.3793H48.9655V94.8276V92.4138H51.3793H53.7931V90V87.5862H56.2069H58.6207V90V92.4138H61.0345H63.4483V90V87.5862H65.8621H68.2759V97.2414V106.897H70.6897H73.1034V109.31V111.724H77.931H82.7586V121.379V131.034H85.1724H87.5862V133.448V135.862H90H92.4138V145.517V155.172H94.8276H97.2414V143.103V131.034H99.6552H102.069V135.862V140.69H104.483H106.897V133.448V126.207H109.31H111.724V133.448V140.69H114.138H116.552V143.103V145.517H118.966H121.379V150.345V155.172H114.138H106.897V157.586V160H118.966H131.034V157.586V155.172H128.621H126.207V147.931V140.69H128.621H131.034V145.517V150.345H135.862H140.69V152.759V155.172H138.276H135.862V157.586V160H138.276H140.69V157.586V155.172H145.517H150.345V152.759V150.345H152.759H155.172V152.759V155.172H157.586H160V143.103V131.034H155.172H150.345V138.276V145.517H147.931H145.517V147.931V150.345H143.103H140.69V147.931V145.517H138.276H135.862V143.103V140.69H140.69H145.517V138.276V135.862H143.103H140.69V133.448V131.034H143.103H145.517V126.207V121.379H150.345H155.172V118.966V116.552H152.759H150.345V114.138V111.724H147.931H145.517V109.31V106.897H150.345H155.172V109.31V111.724H157.586H160V109.31V106.897H157.586H155.172V104.483V102.069H150.345H145.517V99.6552V97.2414H147.931H150.345V92.4138V87.5862H152.759H155.172V92.4138V97.2414H157.586H160V85.1724V73.1034H157.586H155.172V77.931V82.7586H143.103H131.034V80.3448V77.931H138.276H145.517V75.5172V73.1034H147.931H150.345V70.6897V68.2759H152.759H155.172V65.8621V63.4483H157.586H160V61.0345V58.6207H157.586H155.172V61.0345V63.4483H150.345H145.517V68.2759V73.1034H140.69H135.862V70.6897V68.2759H138.276H140.69V65.8621V63.4483H135.862H131.034V61.0345V58.6207H128.621H126.207V61.0345V63.4483H128.621H131.034V65.8621V68.2759H128.621H126.207V70.6897V73.1034H123.793H121.379V70.6897V68.2759H118.966H116.552V65.8621V63.4483H114.138H111.724V61.0345V58.6207H104.483H97.2414V56.2069V53.7931H99.6552H102.069V51.3793V48.9655H104.483H106.897V51.3793V53.7931H109.31H111.724V51.3793V48.9655H109.31H106.897V46.5517V44.1379H111.724H116.552V51.3793V58.6207H118.966H121.379V41.7241V24.8276H116.552H111.724V22.4138V20H109.31H106.897V22.4138V24.8276H109.31H111.724V27.2414V29.6552H114.138H116.552V32.069V34.4828H114.138H111.724V36.8966V39.3103H109.31H106.897V36.8966V34.4828H104.483H102.069V32.069V29.6552H99.6552H97.2414V32.069V34.4828H99.6552H102.069V39.3103V44.1379H99.6552H97.2414V48.9655V53.7931H94.8276H92.4138V48.9655V44.1379H87.5862H82.7586V41.7241V39.3103H87.5862H92.4138V36.8966V34.4828H90H87.5862V27.2414V20H85.1724H82.7586V22.4138V24.8276H80.3448H77.931V22.4138V20H68.2759H58.6207V22.4138ZM97.2414 22.4138V24.8276H99.6552H102.069V22.4138V20H99.6552H97.2414V22.4138ZM126.207 36.8966V53.7931H143.103H160V36.8966V20H143.103H126.207V36.8966ZM48.9655 36.8966V48.9655H36.8966H24.8276V36.8966V24.8276H36.8966H48.9655V36.8966ZM155.172 36.8966V48.9655H143.103H131.034V36.8966V24.8276H143.103H155.172V36.8966ZM29.6552 36.8966V44.1379H36.8966H44.1379V36.8966V29.6552H36.8966H29.6552V36.8966ZM82.7586 32.069V34.4828H80.3448H77.931V32.069V29.6552H80.3448H82.7586V32.069ZM135.862 36.8966V44.1379H143.103H150.345V36.8966V29.6552H143.103H135.862V36.8966ZM73.1034 46.5517V48.9655H75.5172H77.931V46.5517V44.1379H80.3448H82.7586V46.5517V48.9655H85.1724H87.5862V51.3793V53.7931H90H92.4138V63.4483V73.1034H90H87.5862V75.5172V77.931H90H92.4138V80.3448V82.7586H87.5862H82.7586V85.1724V87.5862H80.3448H77.931V90V92.4138H75.5172H73.1034V90V87.5862H75.5172H77.931V75.5172V63.4483H73.1034H68.2759V65.8621V68.2759H65.8621H63.4483V65.8621V63.4483H65.8621H68.2759V58.6207V53.7931H65.8621H63.4483V51.3793V48.9655H65.8621H68.2759V46.5517V44.1379H70.6897H73.1034V46.5517ZM68.2759 51.3793V53.7931H70.6897H73.1034V51.3793V48.9655H70.6897H68.2759V51.3793ZM77.931 51.3793V53.7931H80.3448H82.7586V56.2069V58.6207H80.3448H77.931V61.0345V63.4483H80.3448H82.7586V68.2759V73.1034H85.1724H87.5862V68.2759V63.4483H85.1724H82.7586V61.0345V58.6207H85.1724H87.5862V56.2069V53.7931H85.1724H82.7586V51.3793V48.9655H80.3448H77.931V51.3793ZM48.9655 61.0345V63.4483H51.3793H53.7931V61.0345V58.6207H51.3793H48.9655V61.0345ZM102.069 65.8621V68.2759H109.31H116.552V70.6897V73.1034H114.138H111.724V75.5172V77.931H114.138H116.552V80.3448V82.7586H121.379H126.207V85.1724V87.5862H131.034H135.862V92.4138V97.2414H138.276H140.69V92.4138V87.5862H143.103H145.517V92.4138V97.2414H143.103H140.69V99.6552V102.069H143.103H145.517V104.483V106.897H143.103H140.69V104.483V102.069H138.276H135.862V104.483V106.897H133.448H131.034V109.31V111.724H135.862H140.69V114.138V116.552H135.862H131.034V114.138V111.724H126.207H121.379V114.138V116.552H118.966H116.552V121.379V126.207H114.138H111.724V123.793V121.379H109.31H106.897V123.793V126.207H102.069H97.2414V123.793V121.379H99.6552H102.069V116.552V111.724H104.483H106.897V114.138V116.552H111.724H116.552V114.138V111.724H118.966H121.379V99.6552V87.5862H114.138H106.897V90V92.4138H111.724H116.552V94.8276V97.2414H114.138H111.724V99.6552V102.069H109.31H106.897V104.483V106.897H104.483H102.069V97.2414V87.5862H99.6552H97.2414V80.3448V73.1034H99.6552H102.069V70.6897V68.2759H99.6552H97.2414V65.8621V63.4483H99.6552H102.069V65.8621ZM102.069 80.3448V87.5862H104.483H106.897V80.3448V73.1034H104.483H102.069V80.3448ZM131.034 75.5172V77.931H128.621H126.207V75.5172V73.1034H128.621H131.034V75.5172ZM44.1379 80.3448V82.7586H41.7241H39.3103V80.3448V77.931H41.7241H44.1379V80.3448ZM53.7931 85.1724V87.5862H51.3793H48.9655V90V92.4138H46.5517H44.1379V90V87.5862H46.5517H48.9655V85.1724V82.7586H51.3793H53.7931V85.1724ZM39.3103 92.4138V97.2414H36.8966H34.4828V92.4138V87.5862H36.8966H39.3103V92.4138ZM92.4138 90V92.4138H94.8276H97.2414V97.2414V102.069H94.8276H92.4138V106.897V111.724H94.8276H97.2414V114.138V116.552H94.8276H92.4138V114.138V111.724H87.5862H82.7586V109.31V106.897H77.931H73.1034V104.483V102.069H75.5172H77.931V99.6552V97.2414H80.3448H82.7586V94.8276V92.4138H85.1724H87.5862V90V87.5862H90H92.4138V90ZM48.9655 99.6552V102.069H51.3793H53.7931V104.483V106.897H46.5517H39.3103V109.31V111.724H36.8966H34.4828V114.138V116.552H32.069H29.6552V111.724V106.897H34.4828H39.3103V104.483V102.069H41.7241H44.1379V99.6552V97.2414H46.5517H48.9655V99.6552ZM82.7586 99.6552V102.069H85.1724H87.5862V99.6552V97.2414H85.1724H82.7586V99.6552ZM92.4138 126.207V131.034H90H87.5862V126.207V121.379H90H92.4138V126.207ZM135.862 128.621V135.862H128.621H121.379V128.621V121.379H128.621H135.862V128.621ZM20 143.103V160H36.8966H53.7931V143.103V126.207H36.8966H20V143.103ZM126.207 128.621V131.034H128.621H131.034V128.621V126.207H128.621H126.207V128.621ZM48.9655 143.103V155.172H36.8966H24.8276V143.103V131.034H36.8966H48.9655V143.103ZM29.6552 143.103V150.345H36.8966H44.1379V143.103V135.862H36.8966H29.6552V143.103ZM102.069 147.931V150.345H106.897H111.724V147.931V145.517H106.897H102.069V147.931ZM58.6207 155.172V160H61.0345H63.4483V155.172V150.345H61.0345H58.6207V155.172Z" fill="black"/>
</svg>
