<svg width="180" height="180" viewBox="0 0 180 180" fill="none" xmlns="http://www.w3.org/2000/svg">
<rect width="180" height="180" fill="white"/>
<path fill-rule="evenodd" clip-rule="evenodd" d="M20 36.8966V53.7931H36.8966H53.7931V36.8966V20H36.8966H20V36.8966ZM68.2759 22.4138V24.8276H63.4483H58.6207V29.6552V34.4828H61.0345H63.4483V36.8966V39.3103H61.0345H58.6207V48.9655V58.6207H53.7931H48.9655V61.0345V63.4483H44.1379H39.3103V61.0345V58.6207H36.8966H34.4828V63.4483V68.2759H39.3103H44.1379V70.6897V73.1034H39.3103H34.4828V75.5172V77.931H32.069H29.6552V80.3448V82.7586H27.2414H24.8276V75.5172V68.2759H22.4138H20V77.931V87.5862H22.4138H24.8276V92.4138V97.2414H27.2414H29.6552V92.4138V87.5862H32.069H34.4828V90V92.4138H39.3103H44.1379V94.8276V97.2414H46.5517H48.9655V99.6552V102.069H51.3793H53.7931V99.6552V97.2414H58.6207H63.4483V94.8276V92.4138H65.8621H68.2759V90V87.5862H65.8621H63.4483V82.7586V77.931H65.8621H68.2759V80.3448V82.7586H70.6897H73.1034V77.931V73.1034H68.2759H63.4483V70.6897V68.2759H65.8621H68.2759V65.8621V63.4483H65.8621H63.4483V65.8621V68.2759H61.0345H58.6207V63.4483V58.6207H61.0345H63.4483V51.3793V44.1379H65.8621H68.2759V51.3793V58.6207H70.6897H73.1034V61.0345V63.4483H75.5172H77.931V65.8621V68.2759H80.3448H82.7586V65.8621V63.4483H85.1724H87.5862V65.8621V68.2759H90H92.4138V65.8621V63.4483H90H87.5862V61.0345V58.6207H85.1724H82.7586V53.7931V48.9655H85.1724H87.5862V51.3793V53.7931H90H92.4138V56.2069V58.6207H94.8276H97.2414V63.4483V68.2759H99.6552H102.069V70.6897V73.1034H99.6552H97.2414V77.931V82.7586H99.6552H102.069V77.931V73.1034H104.483H106.897V75.5172V77.931H109.31H111.724V82.7586V87.5862H114.138H116.552V90V92.4138H114.138H111.724V94.8276V97.2414H114.138H116.552V99.6552V102.069H118.966H121.379V104.483V106.897H118.966H116.552V111.724V116.552H114.138H111.724V118.966V121.379H109.31H106.897V116.552V111.724H109.31H111.724V109.31V106.897H109.31H106.897V104.483V102.069H102.069H97.2414V106.897V111.724H94.8276H92.4138V114.138V116.552H90H87.5862V121.379V126.207H90H92.4138V121.379V116.552H94.8276H97.2414V114.138V111.724H99.6552H102.069V118.966V126.207H99.6552H97.2414V131.034V135.862H99.6552H102.069V133.448V131.034H104.483H106.897V128.621V126.207H111.724H116.552V133.448V140.69H111.724H106.897V143.103V145.517H104.483H102.069V143.103V140.69H99.6552H97.2414V143.103V145.517H99.6552H102.069V147.931V150.345H99.6552H97.2414V152.759V155.172H94.8276H92.4138V152.759V150.345H87.5862H82.7586V147.931V145.517H77.931H73.1034V147.931V150.345H70.6897H68.2759V145.517V140.69H73.1034H77.931V138.276V135.862H80.3448H82.7586V138.276V140.69H85.1724H87.5862V143.103V145.517H90H92.4138V143.103V140.69H90H87.5862V135.862V131.034H82.7586H77.931V133.448V135.862H73.1034H68.2759V133.448V131.034H65.8621H63.4483V123.793V116.552H61.0345H58.6207V111.724V106.897H63.4483H68.2759V116.552V126.207H70.6897H73.1034V123.793V121.379H75.5172H77.931V123.793V126.207H80.3448H82.7586V123.793V121.379H80.3448H77.931V118.966V116.552H80.3448H82.7586V114.138V111.724H85.1724H87.5862V109.31V106.897H90H92.4138V104.483V102.069H82.7586H73.1034V104.483V106.897H70.6897H68.2759V104.483V102.069H63.4483H58.6207V104.483V106.897H53.7931H48.9655V109.31V111.724H51.3793H53.7931V114.138V116.552H51.3793H48.9655V118.966V121.379H53.7931H58.6207V126.207V131.034H61.0345H63.4483V135.862V140.69H61.0345H58.6207V143.103V145.517H61.0345H63.4483V147.931V150.345H61.0345H58.6207V155.172V160H61.0345H63.4483V155.172V150.345H65.8621H68.2759V152.759V155.172H70.6897H73.1034V152.759V150.345H77.931H82.7586V152.759V155.172H87.5862H92.4138V157.586V160H94.8276H97.2414V157.586V155.172H99.6552H102.069V157.586V160H106.897H111.724V157.586V155.172H114.138H116.552V157.586V160H118.966H121.379V155.172V150.345H118.966H116.552V145.517V140.69H121.379H126.207V143.103V145.517H128.621H131.034V143.103V140.69H133.448H135.862V145.517V150.345H131.034H126.207V155.172V160H135.862H145.517V157.586V155.172H143.103H140.69V152.759V150.345H145.517H150.345V155.172V160H152.759H155.172V155.172V150.345H157.586H160V147.931V145.517H157.586H155.172V147.931V150.345H152.759H150.345V145.517V140.69H145.517H140.69V138.276V135.862H145.517H150.345V133.448V131.034H152.759H155.172V128.621V126.207H157.586H160V123.793V121.379H155.172H150.345V118.966V116.552H155.172H160V109.31V102.069H157.586H155.172V97.2414V92.4138H157.586H160V90V87.5862H145.517H131.034V90V92.4138H128.621H126.207V87.5862V82.7586H131.034H135.862V80.3448V77.931H133.448H131.034V70.6897V63.4483H135.862H140.69V68.2759V73.1034H143.103H145.517V75.5172V77.931H143.103H140.69V80.3448V82.7586H143.103H145.517V80.3448V77.931H147.931H150.345V80.3448V82.7586H155.172H160V80.3448V77.931H157.586H155.172V73.1034V68.2759H157.586H160V65.8621V63.4483H157.586H155.172V61.0345V58.6207H150.345H145.517V61.0345V63.4483H143.103H140.69V61.0345V58.6207H133.448H126.207V61.0345V63.4483H121.379H116.552V58.6207V53.7931H118.966H121.379V51.3793V48.9655H118.966H116.552V46.5517V44.1379H118.966H121.379V41.7241V39.3103H118.966H116.552V41.7241V44.1379H114.138H111.724V39.3103V34.4828H116.552H121.379V32.069V29.6552H116.552H111.724V27.2414V24.8276H114.138H116.552V22.4138V20H104.483H92.4138V24.8276V29.6552H90H87.5862V32.069V34.4828H90H92.4138V41.7241V48.9655H90H87.5862V44.1379V39.3103H82.7586H77.931V46.5517V53.7931H75.5172H73.1034V46.5517V39.3103H70.6897H68.2759V36.8966V34.4828H65.8621H63.4483V32.069V29.6552H68.2759H73.1034V24.8276V20H70.6897H68.2759V22.4138ZM126.207 36.8966V53.7931H143.103H160V36.8966V20H143.103H126.207V36.8966ZM48.9655 36.8966V48.9655H36.8966H24.8276V36.8966V24.8276H36.8966H48.9655V36.8966ZM155.172 36.8966V48.9655H143.103H131.034V36.8966V24.8276H143.103H155.172V36.8966ZM29.6552 36.8966V44.1379H36.8966H44.1379V36.8966V29.6552H36.8966H29.6552V36.8966ZM102.069 32.069V34.4828H104.483H106.897V32.069V29.6552H109.31H111.724V32.069V34.4828H109.31H106.897V44.1379V53.7931H104.483H102.069V46.5517V39.3103H99.6552H97.2414V34.4828V29.6552H99.6552H102.069V32.069ZM135.862 36.8966V44.1379H143.103H150.345V36.8966V29.6552H143.103H135.862V36.8966ZM97.2414 51.3793V53.7931H94.8276H92.4138V51.3793V48.9655H94.8276H97.2414V51.3793ZM116.552 51.3793V53.7931H114.138H111.724V51.3793V48.9655H114.138H116.552V51.3793ZM20 61.0345V63.4483H24.8276H29.6552V61.0345V58.6207H24.8276H20V61.0345ZM106.897 61.0345V63.4483H111.724H116.552V65.8621V68.2759H114.138H111.724V70.6897V73.1034H118.966H126.207V77.931V82.7586H123.793H121.379V80.3448V77.931H116.552H111.724V75.5172V73.1034H109.31H106.897V70.6897V68.2759H104.483H102.069V63.4483V58.6207H104.483H106.897V61.0345ZM53.7931 65.8621V68.2759H51.3793H48.9655V65.8621V63.4483H51.3793H53.7931V65.8621ZM155.172 65.8621V68.2759H150.345H145.517V65.8621V63.4483H150.345H155.172V65.8621ZM53.7931 75.5172V77.931H56.2069H58.6207V82.7586V87.5862H61.0345H63.4483V90V92.4138H58.6207H53.7931V94.8276V97.2414H51.3793H48.9655V94.8276V92.4138H51.3793H53.7931V90V87.5862H51.3793H48.9655V85.1724V82.7586H46.5517H44.1379V85.1724V87.5862H39.3103H34.4828V85.1724V82.7586H36.8966H39.3103V80.3448V77.931H44.1379H48.9655V75.5172V73.1034H51.3793H53.7931V75.5172ZM77.931 75.5172V77.931H80.3448H82.7586V80.3448V82.7586H80.3448H77.931V85.1724V87.5862H75.5172H73.1034V90V92.4138H77.931H82.7586V94.8276V97.2414H90H97.2414V94.8276V92.4138H90H82.7586V87.5862V82.7586H85.1724H87.5862V77.931V73.1034H82.7586H77.931V75.5172ZM48.9655 80.3448V82.7586H51.3793H53.7931V80.3448V77.931H51.3793H48.9655V80.3448ZM102.069 94.8276V97.2414H104.483H106.897V94.8276V92.4138H104.483H102.069V94.8276ZM121.379 94.8276V97.2414H118.966H116.552V94.8276V92.4138H118.966H121.379V94.8276ZM140.69 94.8276V97.2414H143.103H145.517V94.8276V92.4138H147.931H150.345V97.2414V102.069H152.759H155.172V104.483V106.897H152.759H150.345V111.724V116.552H147.931H145.517V121.379V126.207H147.931H150.345V128.621V131.034H145.517H140.69V118.966V106.897H138.276H135.862V109.31V111.724H133.448H131.034V114.138V116.552H126.207H121.379V114.138V111.724H123.793H126.207V109.31V106.897H131.034H135.862V99.6552V92.4138H138.276H140.69V94.8276ZM131.034 99.6552V102.069H128.621H126.207V99.6552V97.2414H128.621H131.034V99.6552ZM24.8276 104.483V106.897H22.4138H20V109.31V111.724H22.4138H24.8276V109.31V106.897H32.069H39.3103V114.138V121.379H41.7241H44.1379V111.724V102.069H34.4828H24.8276V104.483ZM140.69 104.483V106.897H143.103H145.517V104.483V102.069H143.103H140.69V104.483ZM77.931 109.31V111.724H75.5172H73.1034V109.31V106.897H75.5172H77.931V109.31ZM106.897 109.31V111.724H104.483H102.069V109.31V106.897H104.483H106.897V109.31ZM20 118.966V121.379H22.4138H24.8276V118.966V116.552H22.4138H20V118.966ZM135.862 128.621V135.862H128.621H121.379V128.621V121.379H128.621H135.862V128.621ZM20 143.103V160H36.8966H53.7931V143.103V126.207H36.8966H20V143.103ZM126.207 128.621V131.034H128.621H131.034V128.621V126.207H128.621H126.207V128.621ZM48.9655 143.103V155.172H36.8966H24.8276V143.103V131.034H36.8966H48.9655V143.103ZM29.6552 143.103V150.345H36.8966H44.1379V143.103V135.862H36.8966H29.6552V143.103ZM155.172 138.276V140.69H157.586H160V138.276V135.862H157.586H155.172V138.276ZM111.724 152.759V155.172H109.31H106.897V152.759V150.345H109.31H111.724V152.759Z" fill="black"/>
</svg>
