<svg width="68" height="28" viewBox="0 0 68 28" fill="none" xmlns="http://www.w3.org/2000/svg">
<g clip-path="url(#clip0_2_933)">
<path fill-rule="evenodd" clip-rule="evenodd" d="M67.2897 14.4672C67.2897 9.6822 64.972 5.90649 60.5421 5.90649C56.0935 5.90649 53.4019 9.68219 53.4019 14.4299C53.4019 20.056 56.5794 22.8971 61.1402 22.8971C63.3645 22.8971 65.0467 22.3925 66.3178 21.6822V17.9439C65.0467 18.5794 63.5888 18.9719 61.7383 18.9719C59.9252 18.9719 58.3178 18.3364 58.1121 16.1308H67.2523C67.2523 15.8878 67.2897 14.9158 67.2897 14.4672ZM58.0561 12.6915C58.0561 10.5794 59.3458 9.70089 60.5234 9.70089C61.6635 9.70089 62.8785 10.5794 62.8785 12.6915H58.0561Z" fill="#D2A567"/>
<path fill-rule="evenodd" clip-rule="evenodd" d="M46.1869 5.90649C44.3551 5.90649 43.1776 6.76631 42.5234 7.36444L42.2804 6.20556H38.1682V28L42.8411 27.0093L42.8598 21.7196C43.5327 22.2056 44.5234 22.8971 46.1682 22.8971C49.514 22.8971 52.5608 20.2056 52.5608 14.2803C52.5421 8.85977 49.4579 5.90649 46.1869 5.90649ZM45.0654 18.785C43.9626 18.785 43.3084 18.3925 42.8598 17.9065L42.8411 10.9719C43.3271 10.4299 44 10.056 45.0654 10.056C46.7664 10.056 47.9439 11.9626 47.9439 14.4112C47.9439 16.9158 46.785 18.785 45.0654 18.785Z" fill="#D2A567"/>
<path fill-rule="evenodd" clip-rule="evenodd" d="M31.7383 4.80374L36.4299 3.79439V0L31.7383 0.990654V4.80374Z" fill="#D2A567"/>
<path d="M36.4299 6.22437H31.7383V22.5795H36.4299V6.22437Z" fill="#D2A567"/>
<path fill-rule="evenodd" clip-rule="evenodd" d="M26.7103 7.60739L26.4112 6.22421H22.3738V22.5794H27.0467V11.4952C28.1495 10.056 30.0187 10.3177 30.5981 10.5233V6.22421C30 5.99991 27.8131 5.5887 26.7103 7.60739Z" fill="#D2A567"/>
<path fill-rule="evenodd" clip-rule="evenodd" d="M17.3645 2.16821L12.8037 3.14018L12.785 18.1121C12.785 20.8785 14.8598 22.9159 17.6262 22.9159C19.1589 22.9159 20.2804 22.6355 20.8972 22.2991V18.5047C20.2991 18.7477 17.3458 19.6075 17.3458 16.8411V10.2056H20.8972V6.22429H17.3458L17.3645 2.16821Z" fill="#D2A567"/>
<path fill-rule="evenodd" clip-rule="evenodd" d="M4.72897 10.9719C4.72897 10.2429 5.3271 9.96257 6.31776 9.96257C7.73832 9.96257 9.53271 10.3925 10.9533 11.1588V6.76631C9.40187 6.14948 7.86916 5.90649 6.31776 5.90649C2.52337 5.90649 0 7.8878 0 11.1962C0 16.3551 7.1028 15.5327 7.1028 17.757C7.1028 18.6168 6.35514 18.8971 5.30841 18.8971C3.75701 18.8971 1.7757 18.2616 0.205607 17.4018V21.8504C1.94393 22.5981 3.70093 22.9158 5.30841 22.9158C9.19626 22.9158 11.8692 20.9906 11.8692 17.6448C11.8505 12.0747 4.72897 13.0654 4.72897 10.9719Z" fill="#D2A567"/>
</g>
<defs>
<clipPath id="clip0_2_933">
<rect width="67.4545" height="28" fill="white"/>
</clipPath>
</defs>
</svg>
