<svg width="29" height="29" viewBox="0 0 29 29" fill="none" xmlns="http://www.w3.org/2000/svg">
<path d="M12.537 0.0723362C10.2884 0.346912 8.1675 1.1233 6.32594 2.34942C2.75172 4.73066 0.474632 8.51318 0.0390978 12.8023C-0.0271792 13.4224 -0.00350885 15.7184 0.0675022 15.8889L0.110109 15.9883L0.569314 15.8415C0.877028 15.7421 1.26996 15.5575 1.7765 15.2687C2.48661 14.8616 2.55762 14.8095 3.22986 14.1562C3.61332 13.7775 4.20508 13.1478 4.5412 12.7502C5.07141 12.1205 5.1945 11.9407 5.52589 11.3063C5.77206 10.8329 6.0277 10.2459 6.25493 9.61149C6.57685 8.72622 6.62892 8.51792 6.88456 7.23025C7.03605 6.4586 7.17334 5.82423 7.18754 5.82423C7.20175 5.82423 7.33903 6.4586 7.49052 7.23025C7.74616 8.51792 7.79824 8.72622 8.12016 9.61149C8.34739 10.2459 8.60303 10.8329 8.8492 11.3063C9.18059 11.9454 9.30367 12.1158 9.83862 12.7502C10.4256 13.4508 11.3772 14.4355 11.4198 14.3882C11.4293 14.3787 11.5145 14.1325 11.6044 13.8485C11.6944 13.5597 11.9926 12.6886 12.2672 11.9075C12.8306 10.3074 13.0247 9.64463 13.4034 8.04924C13.6448 7.02669 13.6874 6.76631 13.9147 4.76853C14.0519 3.58028 14.1798 2.60506 14.194 2.60506C14.2082 2.60506 14.336 3.58028 14.4733 4.76853C14.7005 6.76631 14.7431 7.02669 14.9846 8.04924C15.3633 9.64463 15.5574 10.3074 16.1207 11.9075C16.3953 12.6886 16.6936 13.5597 16.7835 13.8485C16.8735 14.1325 16.9587 14.3787 16.9681 14.3882C17.0107 14.4355 17.9623 13.4508 18.5493 12.7502C19.0843 12.1158 19.2073 11.9454 19.5387 11.3063C19.7849 10.8329 20.0405 10.2459 20.2678 9.61149C20.5897 8.72622 20.6418 8.51792 20.8974 7.23025C21.0489 6.4586 21.1862 5.82423 21.2004 5.82423C21.2146 5.82423 21.3519 6.4586 21.5034 7.23025C21.759 8.51792 21.8111 8.72622 22.133 9.61149C22.3602 10.2459 22.6159 10.8329 22.8621 11.3063C23.1934 11.9407 23.3165 12.1205 23.8467 12.7502C24.1829 13.1478 24.7746 13.7775 25.1581 14.1562C25.8303 14.8095 25.9013 14.8616 26.6114 15.2687C27.118 15.5575 27.5109 15.7421 27.8186 15.8415L28.2778 15.9883L28.3204 15.8889C28.3914 15.7184 28.4151 13.4224 28.3488 12.8023C27.705 6.4728 23.0372 1.38841 16.7977 0.214358C15.6521 0.00132561 13.678 -0.0649509 12.537 0.0723362Z" fill="#D2A567"/>
<path d="M13.6791 12.2479L13.1915 14.7475L12.5856 16.6648C12.008 18.4921 11.9559 18.6247 11.5109 19.5289C10.5404 21.4841 8.98766 23.6854 7.15558 25.6974C6.88574 25.9956 6.66797 26.2513 6.66797 26.2655C6.66797 26.3412 8.04558 27.0608 8.73676 27.3448C10.4836 28.0739 12.2021 28.4053 14.1951 28.4053C16.1882 28.4053 17.9067 28.0739 19.6535 27.3448C20.3447 27.0608 21.7223 26.3412 21.7223 26.2655C21.7223 26.2513 21.5045 25.9956 21.2347 25.6974C19.4026 23.6854 17.8498 21.4841 16.8794 19.5289C16.4344 18.6247 16.3823 18.4921 15.8047 16.6648L15.1988 14.7475L14.7112 12.2479C14.4413 10.875 14.2093 9.75303 14.1951 9.75303C14.1809 9.75303 13.949 10.875 13.6791 12.2479Z" fill="#D2A567"/>
<path d="M6.77127 12.2527C5.92387 14.2552 4.82084 15.8222 3.32487 17.1619C2.52008 17.8815 1.43124 18.7099 1.02411 18.9182L0.796875 19.0319L0.891556 19.2638C1.44071 20.6651 2.2313 22.0475 3.07396 23.0842C3.25859 23.3162 3.41955 23.515 3.42902 23.5198C3.43375 23.5292 3.75567 23.4487 4.14386 23.3399C5.14749 23.0558 5.76292 22.7102 6.98904 21.735C7.84117 21.058 7.97846 20.9255 8.55602 20.2438L9.19038 19.4958L9.87209 18.0992L10.5538 16.7074L10.4307 16.608C10.3597 16.5559 10.0094 16.1393 9.64485 15.6896C8.78799 14.6244 8.16309 13.5687 7.60447 12.2527C7.39144 11.7367 7.20207 11.3153 7.18787 11.3153C7.17367 11.3153 6.98431 11.7367 6.77127 12.2527Z" fill="#D2A567"/>
<path d="M20.7833 12.2527C20.2247 13.5687 19.5998 14.6244 18.7429 15.6896C18.3784 16.1393 18.0281 16.5559 17.9571 16.608L17.834 16.7074L18.5157 18.0992L19.1974 19.4958L19.8318 20.2438C20.4093 20.9255 20.5466 21.058 21.3987 21.735C22.6249 22.7102 23.2403 23.0558 24.2439 23.3399C24.6321 23.4487 24.954 23.5292 24.9588 23.5198C24.9682 23.515 25.1292 23.3162 25.3138 23.0842C26.1565 22.0475 26.9471 20.6651 27.4962 19.2638L27.5909 19.0319L27.3637 18.9182C26.9565 18.7099 25.8677 17.8815 25.0629 17.1619C23.5669 15.8222 22.4639 14.2552 21.6165 12.2527C21.4035 11.7367 21.2141 11.3153 21.1999 11.3153C21.1857 11.3153 20.9963 11.7367 20.7833 12.2527Z" fill="#D2A567"/>
</svg>
