<svg width="30" height="29" viewBox="0 0 30 29" fill="none" xmlns="http://www.w3.org/2000/svg">
<path d="M13.4041 0.415403C8.37664 0.92564 4.08806 3.84747 1.87132 8.26149C0.852303 10.2928 0.388672 12.276 0.388672 14.6106C0.388672 16.9451 0.852303 18.9283 1.87132 20.9596C3.95766 25.1137 7.87438 27.9489 12.559 28.6998C13.182 28.7961 13.4235 28.8105 14.7564 28.8105C16.326 28.8105 16.7027 28.7769 17.8231 28.5362C22.0296 27.6409 25.6662 24.8538 27.598 21.0367C28.6557 18.9524 29.1241 16.9837 29.1241 14.6106C29.1241 12.2375 28.6557 10.2687 27.598 8.18448C25.7097 4.45397 22.2469 1.74394 18.1129 0.74754C17.0166 0.487608 16.4467 0.425032 14.9737 0.410591C14.2155 0.400963 13.5104 0.405777 13.4041 0.415403ZM16.4709 2.76923C17.1711 2.87032 18.335 3.16394 18.9629 3.39499C20.1654 3.83784 21.5563 4.64652 22.5802 5.50333C24.8452 7.39987 26.3327 10.1195 26.7384 13.0943C26.8494 13.8982 26.8494 15.323 26.7384 16.1268C26.3085 19.2845 24.7293 22.0331 22.218 24.0066C19.4796 26.1535 15.9879 26.9958 12.4817 26.3508C9.17834 25.7491 6.18406 23.6841 4.41163 20.7864C3.59545 19.453 3.04489 17.9223 2.79859 16.3098C2.64887 15.3374 2.64887 13.8837 2.79859 12.9114C3.31534 9.52264 5.18918 6.57194 8.01926 4.69465C9.78685 3.52015 11.5448 2.91364 13.8388 2.67777C14.2734 2.63445 15.9445 2.69221 16.4709 2.76923Z" fill="#D2A567"/>
<path d="M7.8652 8.92642C7.88588 11.399 7.88071 11.3392 8.227 11.9562C8.60946 12.6284 8.8317 12.8264 10.2582 13.775C12.677 15.3773 13.0698 15.6904 13.4109 16.3258C13.8141 17.0764 13.8141 17.0764 13.8348 19.793L13.8554 22.2012H14.1655H14.4705V17.721C14.4705 12.8633 14.4705 12.9001 14.181 12.3752C13.964 11.9746 13.6073 11.6615 12.4961 10.8879C10.0515 9.19348 9.02294 8.3969 8.61463 7.89501C8.27868 7.476 8.02543 7.057 7.97891 6.83138C7.9634 6.7531 7.92723 6.68403 7.89622 6.68403C7.8652 6.68403 7.85487 7.53126 7.8652 8.92642Z" fill="#D2A567"/>
<path d="M21.5598 6.76691C21.5598 6.91426 21.2481 7.48521 20.9552 7.86278C20.5206 8.43834 20.1286 8.72382 18.0313 9.99466C17.2708 10.4551 16.4819 10.9524 16.2835 11.0997C15.7592 11.4773 15.2774 11.9976 15.0743 12.4028C14.7531 13.0428 14.7578 12.9507 14.7578 17.8269V22.2012H15.0649H15.3672L15.3813 19.5398C15.3955 16.9613 15.4002 16.8738 15.4994 16.5929C15.7025 16.0081 15.882 15.8562 17.7337 14.6728C18.3194 14.2953 19.1886 13.7381 19.6704 13.4296C20.8796 12.6515 21.3237 12.2002 21.5551 11.528C21.6496 11.2563 21.6543 11.1458 21.6543 8.96325C21.6543 7.476 21.6401 6.68403 21.6071 6.68403C21.5835 6.68403 21.5598 6.72087 21.5598 6.76691Z" fill="#D2A567"/>
<path d="M21.6223 12.1478C21.6078 12.2947 21.3806 12.6665 21.1485 12.9236C21.0373 13.0475 20.5393 13.3918 19.8285 13.8371C16.5939 15.857 16.2989 16.0589 16.0523 16.3757C15.8686 16.619 15.7236 17.0459 15.6655 17.5233C15.6414 17.7345 15.6172 18.873 15.6172 20.0528V22.2012H15.9266H16.2361L16.2554 21.4759L16.2699 20.7505L16.4537 20.3971C16.7969 19.736 17.2563 19.3642 19.3644 18.0467C20.8149 17.1377 21.1437 16.8669 21.3709 16.4032C21.6417 15.8615 21.6659 15.6366 21.6465 13.7453C21.6417 12.8042 21.632 12.0835 21.6223 12.1478Z" fill="#D2A567"/>
</svg>
