<svg width="39" height="29" viewBox="0 0 39 29" fill="none" xmlns="http://www.w3.org/2000/svg">
<path d="M19.2725 0.290573C18.3427 1.41815 15.8994 4.68813 14.3166 6.91727C12.5696 9.37626 12.0117 10.4344 11.7868 11.6878C11.7263 12.0217 11.709 12.347 11.709 13.0973C11.709 14.5805 11.8171 15.0662 12.3144 15.8165C12.9544 16.7836 14.2474 17.8548 17.7805 20.3441C19.2206 21.359 19.4498 21.5107 19.5665 21.5107C19.6703 21.5107 20.1071 21.2245 21.4995 20.24C24.665 17.9979 26.0056 16.905 26.6456 16.055C27.2511 15.244 27.4284 14.5805 27.4284 13.0886C27.4284 12.2559 27.3549 11.6271 27.1819 11.0243C27.0175 10.4431 26.4251 9.28518 25.8499 8.42649C24.1158 5.82872 19.7568 3.8147e-06 19.5492 3.8147e-06C19.5276 3.8147e-06 19.4022 0.13011 19.2725 0.290573ZM20.3665 3.93352C21.0887 4.90064 22.6974 7.11243 23.3893 8.08821C23.891 8.80813 23.8996 8.82548 23.8996 9.45866V10.0051L23.6964 10.4128C23.5147 10.7771 23.2942 11.0546 21.5601 13.119C20.4963 14.381 19.6054 15.4218 19.5752 15.4305C19.5319 15.4392 17.2573 12.785 15.8475 11.072C15.5664 10.7337 15.3458 10.3347 15.2507 10.0051C15.1426 9.62779 15.1729 9.07268 15.3242 8.75175C15.5232 8.31807 19.4454 2.91436 19.5622 2.90569C19.5752 2.90569 19.9384 3.36973 20.3665 3.93352ZM14.5285 11.896C15.5707 13.4095 15.8907 13.8215 17.3697 15.5259C17.7935 16.016 18.1784 16.5017 18.2303 16.6101C18.3124 16.7836 18.3211 16.9007 18.334 17.7117C18.347 18.5834 18.347 18.6181 18.2649 18.5964C18.1048 18.553 14.7404 16.0767 14.4939 15.8208C14.2561 15.5693 13.8496 14.9144 13.7112 14.5544C13.4993 14.0037 13.4431 13.609 13.469 12.8804C13.4993 12.0824 13.7285 11.0156 13.8669 11.0156C13.8972 11.0156 14.1955 11.4102 14.5285 11.896ZM25.3872 11.3062C25.677 12.2993 25.7462 13.2968 25.5689 14.0297C25.3786 14.832 24.8467 15.682 24.2456 16.1461C23.7483 16.5364 20.8898 18.6051 20.8509 18.6051C20.7471 18.6051 20.7298 17.1305 20.8336 16.7792C20.9244 16.48 20.972 16.415 21.932 15.3047C23.3201 13.7001 23.5493 13.4095 24.5915 11.8916C24.9202 11.4102 25.2186 11.0156 25.2488 11.0156C25.2791 11.0156 25.3397 11.1457 25.3872 11.3062Z" fill="#D2A567"/>
<path d="M0.125 23.4318C0.125 23.6671 0.1312 23.6929 0.190097 23.7123C0.224195 23.7252 0.279992 23.78 0.31409 23.8348C0.369888 23.9315 0.372987 24.0121 0.372987 25.2209C0.372987 26.6168 0.369888 26.6329 0.196296 26.7296C0.1312 26.7651 0.125 26.7909 0.125 27.0069V27.2422H1.35874C2.66067 27.2422 2.86526 27.2228 3.12255 27.0842C3.27134 27.0069 3.45423 26.8005 3.51933 26.6426C3.65262 26.3073 3.64642 25.856 3.50073 25.5433C3.42323 25.3789 3.23724 25.2242 3.05125 25.1726L2.92416 25.1371L3.10705 25.0436C3.41083 24.8857 3.53793 24.6504 3.53793 24.2442C3.53793 23.8283 3.42323 23.5672 3.16285 23.3996C2.88696 23.2255 2.76297 23.2094 1.38974 23.19L0.125 23.1707V23.4318ZM2.0159 24.0798C2.31349 24.141 2.43128 24.4763 2.23599 24.7019C2.1461 24.8083 2.1399 24.8083 1.83301 24.818L1.51993 24.8309V24.4408V24.0508H1.69972C1.79581 24.054 1.93841 24.0669 2.0159 24.0798ZM2.1709 25.5594C2.36619 25.6594 2.44058 25.9366 2.33519 26.1687C2.26079 26.3331 2.0965 26.404 1.77722 26.404H1.51993V25.9527V25.5014H1.79271C1.98801 25.5014 2.0934 25.5175 2.1709 25.5594Z" fill="#D2A567"/>
<path d="M13.793 23.3969C13.793 23.5875 13.8027 23.6263 13.8576 23.6554C14.0159 23.7394 14.0192 23.7846 14.0192 25.2355V26.5959L13.9061 26.7219C13.8027 26.835 13.793 26.8641 13.793 27.0451V27.2422H14.5685H15.344V27.0386C15.344 26.8577 15.3343 26.8286 15.2471 26.7478C15.1275 26.6347 15.1114 26.5765 15.1243 26.276L15.134 26.0369L15.5056 26.6379L15.8772 27.239L16.4362 27.2422H16.992V27.0386C16.992 26.8512 16.9855 26.8286 16.8951 26.7639C16.8434 26.7252 16.7593 26.625 16.7109 26.541C16.6301 26.3988 16.5267 26.2437 16.1001 25.6362L15.958 25.4391L16.3393 25.1063C16.5461 24.9253 16.7561 24.7508 16.8046 24.725C16.8886 24.6765 16.8951 24.6571 16.8951 24.4697V24.2693H16.2843H15.6736L15.651 24.4697C15.6154 24.767 15.567 24.8607 15.344 25.0352C15.2341 25.1192 15.1307 25.1967 15.1114 25.2032C15.092 25.2097 15.0823 24.9156 15.0855 24.4115C15.0887 23.9688 15.0887 23.51 15.0887 23.3872L15.0855 23.1707H14.4392H13.793V23.3969Z" fill="#D2A567"/>
<path d="M20.1914 23.3872C20.1914 23.5875 20.1979 23.6134 20.298 23.7136L20.4014 23.8202V25.2226V26.625L20.298 26.7316C20.2011 26.8318 20.1914 26.8609 20.1914 27.0418V27.2422H20.9508H21.7101V27.0289C21.7101 26.8415 21.7004 26.8092 21.6294 26.751C21.5227 26.667 21.4775 26.499 21.4904 26.2243L21.5001 25.9981L21.8879 26.6218L22.2756 27.2422H22.8314H23.3904V27.0386C23.3904 26.8512 23.384 26.8318 23.2806 26.751C23.2224 26.7026 23.1287 26.5862 23.0705 26.4925C23.0156 26.3988 22.8346 26.1241 22.6634 25.8818L22.3564 25.4391L22.7409 25.0966C22.951 24.9092 23.161 24.7379 23.2095 24.7185C23.287 24.683 23.2935 24.6636 23.2935 24.4729V24.2693H22.6634H22.0333V24.4665C22.0333 24.7379 21.9686 24.8575 21.7134 25.0513L21.5001 25.2129L21.4904 24.1918L21.4839 23.1707H20.8377H20.1914V23.3872Z" fill="#D2A567"/>
<path d="M25.1348 23.4227C25.1348 23.6619 25.141 23.678 25.2125 23.7136C25.3836 23.7943 25.3867 23.8299 25.3774 25.2581L25.368 26.5701L25.253 26.6799C25.1379 26.7866 25.1348 26.7963 25.1348 27.016V27.2422H26.3726C27.7131 27.2422 27.9121 27.2228 28.1672 27.0677C28.4626 26.8867 28.6181 26.5733 28.6244 26.1468C28.6275 25.8398 28.6026 25.717 28.5 25.5199C28.4067 25.3422 28.1983 25.1838 28.0179 25.1515L27.8966 25.1321L28.0086 25.0933C28.2014 25.0255 28.36 24.893 28.4533 24.7314C28.5342 24.586 28.5404 24.5537 28.5404 24.2209C28.5404 23.8881 28.5342 23.8557 28.4471 23.6909C28.2045 23.2353 27.9246 23.1739 26.0616 23.1707H25.1348V23.4227ZM27.0289 24.0787C27.2372 24.1239 27.343 24.25 27.343 24.4503C27.343 24.5602 27.3243 24.6151 27.2528 24.6959C27.1626 24.8025 27.1564 24.8025 26.8485 24.8122L26.5343 24.8251V24.4341V24.0432H26.7054C26.7956 24.0432 26.9449 24.0593 27.0289 24.0787ZM27.1875 25.5587C27.4021 25.675 27.4612 26.0175 27.3057 26.2243C27.2092 26.3536 27.0662 26.402 26.7832 26.402H26.5343V25.9496V25.4973H26.808C27.0133 25.4973 27.1066 25.5134 27.1875 25.5587Z" fill="#D2A567"/>
<path d="M35.6055 23.3872C35.6055 23.5875 35.6119 23.6134 35.7121 23.7136L35.8155 23.8202V25.2226V26.625L35.7121 26.7316C35.6152 26.8318 35.6055 26.8609 35.6055 27.0418V27.2422H36.3648H37.1242V27.0289C37.1242 26.8415 37.1145 26.8092 37.0434 26.751C36.9368 26.667 36.8915 26.499 36.9045 26.2243L36.9142 25.9981L37.3019 26.6218L37.6897 27.2422H38.2455H38.8045V27.0386C38.8045 26.8512 38.798 26.8318 38.6946 26.751C38.6365 26.7026 38.5492 26.5991 38.5008 26.5184C38.4523 26.4376 38.281 26.1791 38.1162 25.9432C37.9514 25.7073 37.806 25.4973 37.7931 25.4746C37.7672 25.4326 38.5266 24.7411 38.6397 24.7056C38.6979 24.6862 38.7076 24.6603 38.7076 24.4762V24.2693H38.0774H37.4473V24.4471C37.4473 24.725 37.373 24.8639 37.1274 25.0481L36.9142 25.2129L36.9045 24.1918L36.898 23.1707H36.2517H35.6055V23.3872Z" fill="#D2A567"/>
<path d="M4.85148 24.384C4.59788 24.4478 4.3565 24.545 4.1579 24.6543L4.01124 24.7363V25.0461V25.359H4.48483H4.95842V25.1798C4.95842 25.0218 4.96758 24.9915 5.0348 24.9368C5.15091 24.8487 5.27313 24.8305 5.38312 24.8852C5.50228 24.949 5.53895 25.0188 5.53895 25.1889C5.53895 25.3438 5.59395 25.3164 4.93397 25.4956C4.29539 25.6688 4.12734 25.7568 3.98679 25.9968C3.91346 26.1183 3.9043 26.1638 3.9043 26.422C3.9043 26.75 3.95624 26.8897 4.14568 27.0537C4.41761 27.2906 4.97981 27.3058 5.44117 27.0902L5.63367 26.999L5.66728 27.0902L5.69783 27.1813H6.26308C6.78556 27.1813 6.82528 27.1782 6.81 27.1266C6.80389 27.0993 6.78556 27.0142 6.77639 26.9383C6.76417 26.8593 6.72445 26.7682 6.68473 26.7257C6.61446 26.6498 6.61446 26.6376 6.60223 25.8145C6.59307 25.0127 6.59001 24.9732 6.52279 24.8366C6.43419 24.6574 6.31502 24.5572 6.05837 24.4357C5.87199 24.3506 5.83227 24.3415 5.46256 24.3354C5.15396 24.3294 5.01647 24.3415 4.85148 24.384ZM5.5695 26.2215V26.507L5.44728 26.5556C5.25479 26.6315 5.12035 26.6194 5.01647 26.5161C4.87287 26.3734 4.91564 26.2033 5.12035 26.1C5.21202 26.0514 5.49923 25.9421 5.54811 25.9391C5.56034 25.936 5.5695 26.0636 5.5695 26.2215Z" fill="#D2A567"/>
<path d="M8.94369 24.3726C8.84349 24.3974 8.71564 24.4408 8.66035 24.4656C8.53251 24.5246 8.52214 24.5246 8.52214 24.4501C8.52214 24.3912 8.49795 24.3881 7.81381 24.3881H7.10547V24.6301C7.10547 24.841 7.11583 24.8844 7.17803 24.9341C7.33006 25.0551 7.34734 25.1543 7.34734 25.8617C7.34734 26.5752 7.32315 26.6993 7.17803 26.783C7.11583 26.8172 7.10547 26.8544 7.10547 27.0312V27.2422H7.91746H8.72946V27.0498C8.72946 26.8947 8.71564 26.8451 8.65344 26.783C8.57397 26.7117 8.57397 26.6931 8.56361 25.871C8.5567 25.2071 8.56361 25.024 8.59816 25.0054C8.68109 24.9558 8.85731 24.9775 8.97479 25.0489L9.09227 25.1202L9.113 26.0478C9.12336 26.5597 9.14755 27.0374 9.16137 27.1088L9.18902 27.2422H9.89044H10.5953V27.0281C10.5953 26.8482 10.585 26.8048 10.5262 26.7675C10.3673 26.6683 10.3535 26.5907 10.3535 25.7686C10.3535 25.3405 10.3362 24.9372 10.3189 24.872C10.274 24.689 10.115 24.5091 9.92154 24.4222C9.77987 24.357 9.69694 24.3415 9.4378 24.3353C9.24776 24.3291 9.05771 24.3446 8.94369 24.3726Z" fill="#D2A567"/>
<path d="M11.2069 24.3518C11.0614 24.3954 10.9352 24.4734 10.8479 24.5639C10.6247 24.7947 10.5826 25.0161 10.5988 25.9301C10.6085 26.5788 10.615 26.6599 10.6764 26.7909C10.7767 26.9968 10.9255 27.1434 11.1164 27.2276C11.2619 27.29 11.3396 27.3025 11.6436 27.3025C11.9542 27.3025 12.0253 27.29 12.2032 27.2183L12.4038 27.1372V27.2838C12.4038 27.4834 12.352 27.6362 12.2582 27.7236C12.1094 27.8608 11.8215 27.7797 11.8215 27.6019C11.8215 27.4085 11.828 27.4117 11.2684 27.4117H10.7541V27.7049V27.9949L11.0387 28.1228C11.456 28.3069 11.7277 28.3786 12.0965 28.4004C12.8437 28.441 13.3516 28.2258 13.4939 27.8047C13.5392 27.6705 13.5489 27.4366 13.5651 26.2919L13.5845 24.9413L13.6912 24.8571C13.7883 24.776 13.7947 24.7573 13.7947 24.5795V24.3861H13.1154C12.4717 24.3861 12.4361 24.3892 12.4361 24.4453C12.4361 24.5015 12.4232 24.4984 12.2356 24.4235C12.0641 24.358 11.9703 24.3424 11.6598 24.3362C11.456 24.3299 11.2522 24.3362 11.2069 24.3518ZM12.3326 25.0286L12.4038 25.0473V25.8053V26.5664L12.2356 26.5851C12.0415 26.6069 11.9315 26.5788 11.8345 26.4728C11.7213 26.3511 11.6921 26.2077 11.6921 25.771C11.6921 25.3031 11.7374 25.1316 11.883 25.0567C11.9703 25.0099 12.2032 24.9974 12.3326 25.0286Z" fill="#D2A567"/>
<path d="M17.7833 24.3701C17.3903 24.4587 17.1226 24.6542 17.0379 24.9109C16.9904 25.0605 16.9769 26.3222 17.0209 26.5575C17.0785 26.8538 17.3496 27.086 17.7562 27.1837C18.0409 27.254 19.054 27.2632 19.3759 27.199C19.6673 27.141 19.9181 27.0004 20.0367 26.8263C20.1722 26.6277 20.2061 26.3772 20.1891 25.6257C20.179 25.0514 20.1688 24.9658 20.1078 24.8436C19.9858 24.6084 19.8062 24.4801 19.4674 24.3915C19.2167 24.3274 18.0409 24.3121 17.7833 24.3701ZM18.7185 24.8864C18.9219 24.9628 18.9422 25.0544 18.9422 25.8212V26.4994L18.827 26.6033C18.6406 26.7713 18.4034 26.7347 18.2814 26.5239C18.2408 26.4536 18.2306 26.3009 18.2306 25.7815C18.2306 25.1522 18.234 25.1247 18.3085 25.0239C18.3763 24.9322 18.5085 24.8467 18.5796 24.8436C18.5932 24.8436 18.6542 24.862 18.7185 24.8864Z" fill="#D2A567"/>
<path d="M29.9419 24.3907C29.8047 24.424 29.5504 24.5119 29.3831 24.5877L29.0719 24.721V25.0422V25.3604H29.5739H30.0758V25.2058C30.0758 25.0119 30.1193 24.9422 30.2665 24.8877C30.4104 24.8331 30.5443 24.8543 30.6413 24.9483C30.7015 25.0059 30.7149 25.0483 30.7049 25.1786L30.6948 25.3392L30.3937 25.4119C29.3898 25.6513 29.1623 25.7543 28.995 26.0422C28.8912 26.221 28.8912 26.624 29.0016 26.824C29.2593 27.3028 30.039 27.3815 30.8187 27.0028C30.8287 26.9997 30.8488 27.0361 30.8622 27.0846L30.8856 27.1785H31.5013C31.8694 27.1785 32.117 27.1664 32.117 27.1482C32.117 27.0361 32.03 26.7876 31.9698 26.73C31.9028 26.6604 31.8995 26.624 31.8828 25.8058C31.866 24.9968 31.8627 24.9452 31.7924 24.8271C31.692 24.6604 31.4779 24.4968 31.2503 24.415C30.9726 24.318 30.2933 24.3059 29.9419 24.3907ZM30.745 26.221V26.5058L30.6313 26.5543C30.3502 26.6755 30.0758 26.5725 30.0758 26.3452C30.0758 26.2088 30.1829 26.1119 30.4238 26.0331C30.5175 25.9998 30.6179 25.9664 30.6447 25.9573C30.6714 25.9483 30.7049 25.9392 30.7216 25.9392C30.735 25.9361 30.745 26.0634 30.745 26.221Z" fill="#D2A567"/>
<path d="M33.7775 24.3903C33.6834 24.4212 33.5579 24.4677 33.5046 24.4986L33.4011 24.5513V24.4708V24.3934H32.7582H32.1152V24.6349C32.1152 24.8671 32.1184 24.8795 32.2093 24.9446C32.3442 25.0436 32.3661 25.1737 32.3661 25.8487C32.363 26.5486 32.3442 26.6693 32.2125 26.7808C32.1246 26.852 32.1152 26.8768 32.1152 27.0502V27.2422H32.8679H33.6207V27.0533C33.6207 26.8954 33.6081 26.8489 33.5423 26.7715L33.4638 26.6786V25.8456V25.0127L33.5454 24.9941C33.6583 24.9662 33.8622 25.0313 33.9155 25.1149C33.95 25.1675 33.9625 25.3843 33.9751 26.1274C33.9845 26.6477 34.0002 27.109 34.0127 27.1555L34.0347 27.2422H34.6745H35.3143V27.0254C35.3143 26.8427 35.3049 26.8056 35.2515 26.7777C35.1198 26.7096 35.1104 26.6415 35.0947 25.7404C35.0759 24.7742 35.0696 24.7433 34.8595 24.542C34.7905 24.477 34.6745 24.4058 34.5961 24.3779C34.4047 24.316 33.997 24.319 33.7775 24.3903Z" fill="#D2A567"/>
</svg>
