<svg width="57" height="29" viewBox="0 0 57 29" fill="none" xmlns="http://www.w3.org/2000/svg">
<path d="M17.7288 17.0917C17.7288 18.567 17.135 19.9816 16.0779 21.0248C15.021 22.0679 13.5875 22.6539 12.0927 22.6539C10.598 22.6539 9.16444 22.0679 8.1075 21.0248C7.05054 19.9816 6.45675 18.567 6.45675 17.0917V11.5296H12.0927V5.96743H6.45675V0.405273H0.820791V17.0917C0.738986 18.6005 0.969468 20.1098 1.49818 21.5278C2.02689 22.9458 2.84275 24.2426 3.89599 25.3392C4.94923 26.4358 6.21778 27.309 7.62426 27.9058C9.03072 28.5027 10.5457 28.8105 12.0766 28.8105C13.6076 28.8105 15.1225 28.5027 16.5289 27.9058C17.9355 27.309 19.204 26.4358 20.2573 25.3392C21.3104 24.2426 22.1263 22.9458 22.6551 21.5278C23.1838 20.1098 23.4142 18.6005 23.3324 17.0917H17.7288Z" fill="#D2A567"/>
<path d="M34.4103 17.0917C34.4103 18.567 33.8165 19.9816 32.7596 21.0248C31.7027 22.0679 30.2691 22.6539 28.7744 22.6539C27.2796 22.6539 25.8462 22.0679 24.7891 21.0248C23.7322 19.9816 23.1384 18.567 23.1384 17.0917V11.5296H28.7744V5.96743H23.1384V0.405273H17.5024V17.0917C17.4206 18.6005 17.6512 20.1098 18.1799 21.5278C18.7085 22.9458 19.5244 24.2426 20.5777 25.3392C21.6309 26.4358 22.8994 27.309 24.3059 27.9058C25.7125 28.5026 27.2273 28.8105 28.7582 28.8105C30.2892 28.8105 31.8041 28.5026 33.2106 27.9058C34.617 27.309 35.8857 26.4358 36.939 25.3392C37.9921 24.2426 38.8079 22.9458 39.3367 21.5278C39.8654 20.1098 40.0958 18.6005 40.014 17.0917H34.4103Z" fill="#D2A567"/>
<path d="M45.4438 6.08226C43.4651 6.07741 41.5204 6.60106 39.8078 7.59991V0.405273H34.1719V17.4484C34.1719 19.6956 34.8329 21.8923 36.0715 23.7608C37.3102 25.6292 39.0706 27.0857 41.1302 27.9456C43.1898 28.8056 45.4563 29.0305 47.6428 28.5922C49.8294 28.1537 51.8378 27.0716 53.4142 25.4826C54.9907 23.8936 56.0642 21.8691 56.4991 19.665C56.934 17.4609 56.7108 15.1764 55.8576 13.1003C55.0045 11.0242 53.5599 9.24966 51.7061 8.00117C49.8525 6.75269 47.6732 6.08632 45.4438 6.08632V6.08226ZM45.4438 23.1051C44.3292 23.1051 43.2395 22.7719 42.3126 22.1477C41.3858 21.5235 40.6634 20.6361 40.2369 19.5981C39.8103 18.56 39.6987 17.4177 39.9161 16.3158C40.1336 15.2138 40.6703 14.2015 41.4585 13.4069C42.2467 12.6124 43.251 12.0714 44.3443 11.8522C45.4375 11.633 46.5707 11.7455 47.6006 12.1755C48.6305 12.6054 49.5107 13.3336 50.1299 14.2678C50.7491 15.2021 51.0797 16.3005 51.0797 17.424C51.0797 18.9308 50.4859 20.3757 49.4291 21.4411C48.3721 22.5065 46.9385 23.1051 45.4438 23.1051Z" fill="#D2A567"/>
</svg>
