<svg width="55" height="22" viewBox="0 0 55 22" fill="none" xmlns="http://www.w3.org/2000/svg">
<path fill-rule="evenodd" clip-rule="evenodd" d="M27.1799 0.260406C23.5802 1.26748 20.4939 4.49635 19.511 8.28297C18.0742 13.8181 21.4527 19.8992 26.903 21.5885C28.5007 22.0836 31.1388 22.1401 32.7358 21.7135C34.7046 21.1875 37.8395 19.2316 37.8395 18.5292C37.8395 18.2009 35.8521 15.9834 35.2851 15.6788C35.0087 15.5305 34.6991 15.653 34.0025 16.1866C30.931 18.5391 26.4695 17.3336 24.8155 13.7044C24.0863 12.1041 24.1302 9.70027 24.9182 8.09025C25.6213 6.65341 27.0245 5.3498 28.3589 4.89354C30.2384 4.25088 32.5014 4.58419 33.9889 5.72262C34.3634 6.00927 34.7969 6.24381 34.9523 6.24381C35.1075 6.24381 35.7817 5.68899 36.4505 5.01081C38.0001 3.43946 37.9775 3.1133 36.2352 1.91876C34.2291 0.543278 32.8508 0.0927004 30.4043 0.0126303C28.9889 -0.0336044 27.9436 0.046676 27.1799 0.260406ZM7.39453 0.832246C6.82212 1.75 -0.121738 20.9355 0.00162405 21.2581C0.174624 21.7108 4.35824 21.7406 4.72958 21.2919C4.86299 21.1305 5.28335 20.0667 5.6639 18.9277L6.35569 16.8568L9.93067 16.7994L13.5058 16.742L14.1723 18.8524C14.5388 20.0131 14.9782 21.1028 15.1489 21.2741C15.5297 21.6561 19.923 21.7301 20.1521 21.3583C20.318 21.0889 13.1992 1.2616 12.7447 0.727167C12.481 0.416974 12.0603 0.359391 10.0607 0.359391C7.8287 0.359391 7.67204 0.387132 7.39453 0.832246ZM39.1921 0.622088C39.137 0.766677 39.1165 5.51876 39.1464 11.1825L39.2009 21.4802L43.285 21.5418C48.2716 21.6171 50.2707 21.3859 52.0054 20.5331C54.0786 19.5138 54.9916 17.9765 55 15.4907C55.0073 13.3152 53.8836 11.4969 52.0083 10.6498L51.2019 10.2854L51.8654 9.89341C52.6768 9.41383 53.7016 7.90994 53.8849 6.92997C54.4676 3.81354 52.4741 1.24205 48.9565 0.572701C47.2646 0.250739 39.3186 0.290879 39.1921 0.622088ZM47.9891 4.67771C49.1025 5.20773 49.5054 6.69102 48.8078 7.69032C48.2888 8.43386 47.2491 8.7657 45.4385 8.7657H43.8086V6.55904V4.35239H45.5572C46.7019 4.35239 47.5419 4.46482 47.9891 4.67771ZM11.1354 9.24381L12.2069 12.6536L10.0205 12.7135C8.81811 12.7465 7.79163 12.731 7.73969 12.6788C7.61884 12.5576 9.84794 5.63645 9.9713 5.74931C10.0222 5.79575 10.546 7.36836 11.1354 9.24381ZM29.418 7.28136C28.4466 7.59386 27.6304 8.31176 27.1759 9.2539C25.4018 12.931 29.7263 16.501 32.9103 13.9879C34.2239 12.951 34.6562 10.7519 33.8559 9.17782C33.0831 7.65754 31.0067 6.77025 29.418 7.28136ZM48.7282 12.8625C49.6387 13.3349 49.9872 13.978 49.9872 15.1856C49.9872 16.03 49.8871 16.3497 49.5159 16.6889C48.6694 17.4624 48.1598 17.5923 45.9692 17.5923H43.8086V15.0704V12.5485H45.9659C47.4701 12.5485 48.3062 12.6435 48.7282 12.8625Z" fill="#D2A567"/>
</svg>
