<svg width="71" height="22" viewBox="0 0 71 22" fill="none" xmlns="http://www.w3.org/2000/svg">
<path fill-rule="evenodd" clip-rule="evenodd" d="M59.7794 0.0703C57.6468 0.544054 56.2639 2.33249 56.3822 4.46404C56.4593 5.85177 57.0683 7.37014 58.011 8.52459L58.2992 8.87746L57.8415 9.46548C57.3509 10.0958 56.938 10.8253 56.6918 11.4968C56.4691 12.1043 56.4547 12.0743 57.011 12.1607L57.2196 12.1931L57.3249 11.8677C57.5838 11.0673 58.3367 9.8813 58.9636 9.28609C59.1109 9.14627 59.2314 8.98232 59.2314 8.92176C59.2314 8.8612 59.0907 8.65483 58.9188 8.46318C57.93 7.36068 57.3584 6.20732 57.1248 4.84314C57.065 4.49392 57.0663 4.41437 57.1325 4.37354C57.3822 4.21941 59.14 4.39909 60.0278 4.66955C60.9796 4.95946 60.9141 4.9691 61.2889 4.48446C62.004 3.55942 62.7481 2.90855 63.7381 2.34201C64.0439 2.16701 64.3042 2.01595 64.3163 2.00637C64.3602 1.97187 63.7148 1.24203 63.443 1.01872C62.9974 0.652684 62.456 0.349488 61.953 0.184462C61.3764 -0.00480042 60.3582 -0.0582887 59.7794 0.0703ZM65.3184 1.98812C64.7231 2.13901 63.8138 2.58944 63.2114 3.03183C62.5858 3.49121 61.7427 4.33956 61.3771 4.87746C61.223 5.10425 61.0787 5.30075 61.0564 5.31409C61.0343 5.3275 60.8581 5.27452 60.6651 5.19634C59.9612 4.91139 59.0242 4.71666 58.1837 4.68062L57.3995 4.64697L57.441 4.95199C57.4638 5.1197 57.4957 5.27766 57.5117 5.30303C57.5278 5.32835 57.7191 5.34905 57.9369 5.34905C58.7583 5.34905 59.8463 5.60435 60.7408 6.00705C60.982 6.11556 61.2349 6.20367 61.3028 6.20275C61.3957 6.2015 61.4891 6.0899 61.6807 5.7517C62.3258 4.61242 63.442 3.5857 64.7118 2.96386L65.0708 2.78794L65.1919 3.07192C65.5069 3.81026 65.67 4.63671 65.7201 5.74782L65.7574 6.57426L66.2995 6.75634C67.3954 7.12443 68.3805 7.68919 69.1722 8.4033C69.5742 8.76597 69.6003 8.78 69.7037 8.68888C70.0073 8.42121 70.474 7.25998 70.5908 6.48166C70.8922 4.47334 69.493 2.5071 67.3895 1.98299C66.791 1.83387 65.9186 1.83604 65.3184 1.98812ZM64.5575 3.33417C64.4127 3.4172 64.2849 3.4923 64.2735 3.50102C64.2621 3.5098 64.3076 3.67899 64.3746 3.87704C64.4415 4.07508 64.5394 4.48086 64.5921 4.77881C64.685 5.30469 64.6855 5.47941 64.5986 7.14262C64.5877 7.34956 64.6012 7.3714 64.7624 7.40932C65.7534 7.64238 66.0625 7.73247 66.5053 7.91729C67.2469 8.22681 67.9466 8.67337 68.543 9.21777C68.8297 9.47946 69.0643 9.71508 69.0643 9.74142C69.0643 9.82702 68.1118 10.469 67.5718 10.7474C67.2821 10.8968 66.729 11.1243 66.3427 11.2531L65.6403 11.4871L65.6049 12.2814C65.5533 13.4379 65.3227 14.3779 64.8407 15.3966C64.6207 15.8617 64.6107 15.8474 65.2599 15.9969C65.5717 16.0688 65.9192 16.0965 66.4597 16.0928C67.1136 16.0882 67.2865 16.0665 67.6889 15.938C69.0449 15.5049 70.0639 14.4529 70.4121 13.1266C70.5512 12.5965 70.5656 11.6632 70.4431 11.1006C70.3313 10.5863 70.0442 9.93336 69.7119 9.43754C69.0698 8.47914 67.5568 7.46116 66.1265 7.02515C65.8591 6.94361 65.5843 6.8559 65.5158 6.83019C65.3964 6.78537 65.39 6.73895 65.3613 5.70984C65.3362 4.8116 65.3069 4.54239 65.1819 4.06162C65.0317 3.48386 64.9194 3.18169 64.8554 3.18266C64.8364 3.183 64.7024 3.25114 64.5575 3.33417ZM0.345758 4.50966C0.236894 4.58117 0.114861 4.70308 0.0745924 4.78052C0.0171166 4.89126 0.00125476 6.69361 0.000610939 13.2069C-0.00032553 22.322 -0.024557 21.7253 0.354127 21.9161C0.510986 21.9951 1.04571 22.0031 5.07937 21.9868L9.6278 21.9685L10.2089 21.8139C12.0617 21.3209 13.2876 20.223 13.7898 18.6071C13.9316 18.1506 13.9497 17.9994 13.9532 17.2385C13.9567 16.5108 13.9374 16.3158 13.8239 15.9318C13.3815 14.4336 12.3044 13.3439 10.7995 12.8719L10.391 12.7438L10.6964 12.6426C11.2868 12.4471 11.7258 12.1763 12.2096 11.7093C12.5934 11.3388 12.7297 11.1582 12.921 10.7663C13.2714 10.0487 13.3651 9.61985 13.3695 8.71346C13.3737 7.81208 13.2933 7.45089 12.9253 6.71956C12.525 5.92402 11.7239 5.23118 10.7704 4.85591C9.65478 4.41694 9.16302 4.37965 4.48817 4.37965H0.543822L0.345758 4.50966ZM15.1003 12.9361C15.1003 22.3367 15.0765 21.7255 15.4495 21.9135C15.5881 21.9833 15.8758 22 16.941 22H18.2609L18.2606 13.4607C18.2605 4.9963 18.2594 4.91972 18.1423 4.73262C17.9425 4.4134 17.7722 4.37965 16.3605 4.37965H15.1003V12.9361ZM20.309 4.50652C20.1975 4.57974 20.0733 4.70308 20.0331 4.78052C19.9755 4.89132 19.9597 6.74437 19.9591 13.4607L19.9582 22H24.1974C26.8836 22 28.6011 21.9777 28.8859 21.9391C29.9119 21.8001 30.8645 21.4718 31.6987 20.9697C32.3594 20.5721 33.2824 19.6902 33.7316 19.0274C34.529 17.851 35.0441 16.3605 35.231 14.6889C35.3097 13.985 35.3102 12.2618 35.2318 11.5932C34.7741 7.68674 32.6203 5.1692 29.1766 4.51496C28.7127 4.42686 28.1636 4.41243 24.5809 4.39413L20.5119 4.37332L20.309 4.50652ZM34.4735 4.41432C34.4735 4.47853 40.2133 20.6881 40.3224 20.9318C40.5159 21.3642 40.7643 21.635 41.1269 21.8085L41.4677 21.9715H43.2498H45.0319L47.0947 16.1836C48.2293 13.0002 49.3601 9.83112 49.6076 9.14113C50.5035 6.64366 50.8911 6.01629 51.9642 5.32641C52.6449 4.88875 52.7496 4.78457 52.7244 4.56999L52.7054 4.40816H50.8324H48.9595L48.5946 4.57239C48.177 4.76028 47.7844 5.13555 47.5662 5.55531C47.4034 5.86854 43.2687 17.7836 43.0766 18.493C43.0086 18.7439 42.9386 18.9877 42.9208 19.0348C42.9031 19.0818 42.8151 18.8509 42.7252 18.5215C42.598 18.0555 40.0646 10.625 38.3215 5.60566C38.0537 4.83458 37.8382 4.55425 37.4279 4.44323C37.185 4.37754 34.4735 4.35096 34.4735 4.41432ZM55.3349 5.08383C54.0811 5.67882 53.1446 6.73251 52.8184 7.91512C52.6679 8.46061 52.6785 9.35999 52.8421 9.92857C53.2726 11.4245 54.4487 12.5508 56.0533 13.0039C56.4585 13.1183 56.6379 13.1327 57.6511 13.1319C58.5307 13.1313 58.9034 13.1075 59.2763 13.0282C59.6833 12.9417 60.4603 12.7085 60.8182 12.5656C60.89 12.5369 61.0066 12.6657 61.3068 13.105C61.5237 13.4225 61.9159 13.8941 62.1783 14.1531C62.658 14.6266 63.3247 15.1571 63.44 15.1571C63.4973 15.1571 63.8277 14.5903 63.7859 14.5638C63.5318 14.4028 62.9024 13.8678 62.6003 13.5556C62.1898 13.1317 61.6253 12.3419 61.432 11.921C61.2954 11.6237 61.2031 11.6147 60.6715 11.847C59.4085 12.3991 57.9724 12.5968 56.6937 12.3946C56.4085 12.3495 56.1619 12.2996 56.1456 12.2838C56.102 12.2413 56.3356 11.5239 56.5669 10.9896C56.8061 10.437 57.1543 9.85 57.5437 9.34266C57.6993 9.13988 57.8267 8.93328 57.8267 8.88361C57.8267 8.83395 57.7129 8.64064 57.5739 8.454C56.8496 7.48197 56.3847 6.42304 56.129 5.16372C56.0783 4.91402 56.038 4.83584 55.96 4.83584C55.9036 4.83584 55.6223 4.94743 55.3349 5.08383ZM8.42795 6.9695C9.21201 7.22034 9.62675 7.54624 9.90851 8.13295C10.0564 8.44082 10.0898 8.59205 10.1128 9.05674C10.1584 9.97796 9.93959 10.6004 9.39333 11.1038C9.04742 11.4225 8.7656 11.5672 8.22175 11.7052C7.939 11.7769 7.45039 11.7927 5.51846 11.7927H3.16031V9.30833V6.82392L5.63318 6.84518C7.82194 6.86406 8.14303 6.87831 8.42795 6.9695ZM28.4157 6.99202C29.8589 7.37454 30.8711 8.27409 31.4352 9.67539C31.8544 10.7169 32.0556 12.1528 31.9954 13.6745C31.8681 16.8904 30.7578 18.7362 28.5604 19.3844C28.1411 19.5082 28.0197 19.5143 25.6209 19.5341L23.1188 19.5546V13.1887V6.82283L25.5331 6.84535C27.7894 6.8664 27.9781 6.87603 28.4157 6.99202ZM67.7181 9.48738C66.9979 9.96832 66.0025 10.3684 65.1136 10.5342C64.9204 10.5703 64.7097 10.6105 64.6452 10.6235C64.5323 10.6464 64.528 10.6928 64.5282 11.8901C64.5283 12.9899 64.5132 13.1903 64.3973 13.6333C64.2559 14.1735 63.96 14.9085 63.7091 15.3425L63.5525 15.6134L63.1039 15.3144C62.529 14.9311 61.5596 13.996 61.1678 13.4467C61.0001 13.2117 60.8283 13.0004 60.7859 12.9773C60.7435 12.9542 60.5147 12.9997 60.2774 13.0785C59.2523 13.4186 58.0177 13.5417 56.7585 13.4292L56.2464 13.3835L56.2476 13.6573C56.2523 14.7849 56.7305 15.9513 57.5004 16.7135C58.0276 17.2354 58.5724 17.5519 59.3499 17.7879C59.9742 17.9774 61.0039 17.9775 61.6311 17.7882C63.8866 17.1074 65.263 14.931 65.2725 12.0305C65.2748 11.3099 65.2814 11.268 65.3991 11.223C65.4674 11.197 65.7998 11.0934 66.1378 10.9929C66.4758 10.8924 66.9894 10.6945 67.2792 10.553C67.8242 10.2869 68.6546 9.75996 68.6546 9.68018C68.6546 9.6296 68.1845 9.22473 68.1319 9.22998C68.1136 9.2318 67.9274 9.34762 67.7181 9.48738ZM8.65943 14.0902C9.87831 14.4468 10.6023 15.2265 10.775 16.3689C10.9616 17.6022 10.4329 18.6838 9.40217 19.1779C8.68015 19.524 8.4588 19.5459 5.66244 19.547L3.16031 19.548V16.7501V13.9522L5.75024 13.9745C7.93385 13.9932 8.39026 14.0114 8.65943 14.0902Z" fill="#D2A567"/>
</svg>
