<svg width="24" height="22" viewBox="0 0 24 22" fill="none" xmlns="http://www.w3.org/2000/svg">
<path fill-rule="evenodd" clip-rule="evenodd" d="M5.99967 0.588488C5.8769 0.502365 5.55238 0.347208 5.27859 0.243607C4.88708 0.0955052 4.6173 0.0492145 4.01448 0.0267185C3.33537 0.00134458 3.18706 0.0191028 2.71262 0.182155C2.4181 0.28344 2.00753 0.473341 1.80024 0.604211C1.3004 0.919752 0.644578 1.62794 0.404219 2.11166C0.0100727 2.90495 0.00182209 2.99918 0.000873177 6.7057L0 10.1377H1.56929H3.13859L3.14019 6.84945C3.14173 3.84242 3.15261 3.54807 3.26793 3.40787C3.52865 3.09096 3.92755 3.00887 4.29585 3.19638C4.66621 3.38498 4.67139 3.43608 4.67139 6.90672V10.1377H6.24068H7.80998L7.81013 6.95726C7.8102 4.07292 7.8221 3.75341 7.93786 3.52624C8.19004 3.03101 8.76608 2.94296 9.1676 3.33834L9.41577 3.58271V6.86022V10.1377H10.9894H12.5631L12.5392 6.59788L12.5154 3.05804L12.3268 2.57797C11.9663 1.65991 11.4324 1.02374 10.6201 0.544198C9.4027 -0.174553 7.94932 -0.181677 6.6333 0.524861L6.22302 0.745083L5.99967 0.588488ZM22.5435 1.83121C21.7493 0.937511 20.9057 0.415047 19.8235 0.146604C19.2866 0.0133472 18.2016 -0.0377515 17.7732 0.0499164C16.5637 0.297443 15.7766 0.706128 14.961 1.51005C13.9943 2.46293 13.5343 3.45149 13.4535 4.74977C13.3956 5.67888 13.5544 6.44234 13.9904 7.33109C14.2709 7.90301 14.4234 8.10807 14.9536 8.62748C15.4204 9.08484 15.7346 9.32145 16.1674 9.54146C18.75 10.8546 21.8317 9.91333 23.1718 7.40195C24.1172 5.63038 23.8552 3.30728 22.5435 1.83121ZM16.7299 4.30571C16.9536 3.82459 17.2969 3.48118 17.7716 3.26345C18.741 2.8189 19.9256 3.24513 20.4056 4.21106C21.0565 5.52127 20.0849 7.0584 18.6165 7.04163C18.0608 7.03531 17.794 6.95164 17.3583 6.6474C16.6589 6.15902 16.3696 5.08075 16.7299 4.30571ZM5.92974 12.3707C5.73946 12.256 5.3829 12.0959 5.13736 12.0149C4.53723 11.817 3.66201 11.766 3.08385 11.8954C1.67104 12.2115 0.537503 13.2683 0.117661 14.661C0.0164968 14.9966 0 15.539 0 18.5256V22L1.55105 21.9806L3.10209 21.9612L3.13859 18.6549C3.15866 16.8365 3.20224 15.2946 3.23545 15.2284C3.26866 15.1623 3.4115 15.0542 3.55281 14.9881C3.87879 14.8359 4.22396 14.8936 4.45898 15.1399L4.63489 15.3242L4.67139 18.6427L4.70788 21.9612L6.25893 21.9806L7.80998 22V18.7978C7.80998 15.2807 7.81815 15.2082 8.23858 14.994C8.51609 14.8527 8.70783 14.8518 8.98023 14.9905C9.05436 15.0283 9.11588 15.0594 9.16692 15.1026C9.41622 15.3134 9.41577 15.8106 9.41577 18.7592V21.9971H10.9851H12.5544L12.5531 18.6729C12.5517 14.9547 12.5291 14.7264 12.0789 13.8829C11.3643 12.5435 9.77641 11.6745 8.32391 11.8277C7.69174 11.8944 7.04825 12.0965 6.62315 12.3622L6.27572 12.5792L5.92974 12.3707ZM21.4224 12.6624C20.8055 12.2561 20.3308 12.0648 19.5395 11.9039C18.7148 11.7361 18.1913 11.7606 17.2404 12.0113C15.5369 12.4604 14.1688 13.7682 13.6367 15.4565C13.4127 16.1672 13.3954 17.5577 13.6023 18.2237C14.3102 20.5021 16.2667 21.9593 18.6126 21.9552C20.0467 21.9528 21.1753 21.4907 22.1992 20.4868C22.7463 19.9504 22.8783 19.7694 23.1975 19.118C23.6262 18.2434 23.7401 17.7614 23.735 16.8437C23.7258 15.1831 22.8528 13.6045 21.4224 12.6624ZM16.6731 17.5253C16.3275 16.5007 16.9269 15.3126 17.9534 14.9876C19.0044 14.6547 20.2261 15.2715 20.5194 16.2831C20.814 17.2991 20.3971 18.2238 19.4155 18.7314C19.0274 18.932 18.1687 18.9166 17.7192 18.701C17.2743 18.4875 16.8288 17.9869 16.6731 17.5253Z" fill="#D2A567"/>
</svg>
