<svg width="26" height="22" viewBox="0 0 26 22" fill="none" xmlns="http://www.w3.org/2000/svg">
<path d="M19.9417 9.43792C19.9417 10.0965 17.562 10.6476 14.372 10.7866L14.3741 10.7877C13.843 10.8162 13.311 10.8278 12.7791 10.8225C11.9508 10.8225 11.3649 10.7982 11.1586 10.7877C7.96229 10.6486 5.5762 10.0975 5.5762 9.43792C5.5762 8.77831 7.96229 8.22617 11.1586 8.08498V10.2387C11.367 10.2545 11.9657 10.2893 12.793 10.2893C13.785 10.2893 14.2816 10.2471 14.372 10.2398V8.08709C17.562 8.22723 19.9417 8.77936 19.9417 9.43792ZM25.4603 10.0132L12.8919 21.9473C12.8562 21.9811 12.8088 22 12.7595 22C12.7101 22 12.6627 21.9811 12.6271 21.9473L0.0596833 10.0132C0.0301912 9.98578 0.0103539 9.94968 0.00308186 9.91024C-0.00419018 9.87079 0.0014858 9.83008 0.0192771 9.79406L4.67237 0.107497C4.68774 0.0749372 4.71227 0.0474707 4.74302 0.0284033C4.77377 0.0093358 4.80943 -0.000520229 4.8457 2.11636e-05H20.6764C20.7123 0.000179594 20.7473 0.0104775 20.7775 0.0297037C20.8076 0.0489299 20.8316 0.0762849 20.8466 0.108551L25.5007 9.79406C25.5185 9.83008 25.5242 9.87079 25.5169 9.91024C25.5096 9.94968 25.4898 9.98578 25.4603 10.0132ZM20.6988 9.58754C20.6988 8.73827 17.9852 8.02808 14.3752 7.86265V5.93651H18.8263V2.99671H6.70757V5.93651H11.1576V7.8637C7.54015 8.02808 4.82018 8.73827 4.82018 9.58859C4.82018 10.44 7.54015 11.1481 11.1576 11.3145V17.4913H14.3741V11.3124C17.983 11.147 20.6988 10.4379 20.6988 9.58754Z" fill="#D2A567"/>
</svg>
